<?xml version="1.0" encoding="UTF-8"?>
<!-- Generator: visioncortex VTracer 0.6.3 -->
<svg version="1.1" xmlns="http://www.w3.org/2000/svg" width="1280" height="1280">
<path d="M0 0 C1.36 -0 2.72 -0 4.08 -0 C6.91 -0 9.74 -0 12.58 0 C16.13 0.01 19.69 0 23.25 -0 C39.29 -0.02 55.29 0.2 71.31 1.13 C71.31 1.79 71.31 2.45 71.31 3.13 C72.2 3.1 73.08 3.06 74 3.03 C82.69 2.84 91.06 3.43 99.68 4.57 C100.7 4.7 101.72 4.84 102.76 4.98 C110.02 5.99 110.02 5.99 112.31 7.13 C114.68 7.36 117.06 7.54 119.43 7.7 C120.71 7.78 122 7.86 123.32 7.95 C124.8 8.04 124.8 8.04 126.31 8.13 C126.31 8.79 126.31 9.45 126.31 10.13 C127.82 10.09 127.82 10.09 129.36 10.04 C133.3 10.13 136.67 10.73 140.5 11.63 C144.3 12.52 147.38 13.13 151.31 13.13 C151.31 13.79 151.31 14.45 151.31 15.13 C152.15 15.09 153 15.05 153.87 15.01 C157.65 15.15 160.69 16.05 164.31 17.13 C166.64 17.5 168.97 17.85 171.31 18.13 C171.31 18.79 171.31 19.45 171.31 20.13 C174.61 20.46 177.91 20.79 181.31 21.13 C181.31 21.79 181.31 22.45 181.31 23.13 C183.95 23.13 186.59 23.13 189.31 23.13 C189.31 23.79 189.31 24.45 189.31 25.13 C190.32 25.19 191.33 25.26 192.37 25.32 C201.28 26.42 209.9 30.22 218.26 33.37 C221.03 34.4 223.81 35.36 226.6 36.33 C232.55 38.39 238.42 40.47 244.13 43.13 C246.89 44.4 249.69 45.58 252.5 46.76 C253.46 47.16 254.42 47.57 255.41 47.98 C258.35 49.15 261.31 50.16 264.31 51.13 C264.31 51.79 264.31 52.45 264.31 53.13 C265.63 52.8 266.95 52.47 268.31 52.13 C268.64 52.79 268.97 53.45 269.31 54.13 C271.33 54.78 271.33 54.78 273.31 55.13 C273.31 55.79 273.31 56.45 273.31 57.13 C274.34 57.4 275.37 57.67 276.43 57.95 C282.78 59.78 288.37 63.24 294.14 66.41 C296.96 67.94 299.79 69.45 302.62 70.95 C309.52 74.61 316.35 78.37 323.12 82.25 C325.83 83.79 328.34 85.14 331.31 86.13 C331.64 86.79 331.97 87.45 332.31 88.13 C335.21 90.01 338.2 91.63 341.31 93.13 C347.36 96.16 352.82 100.71 358.12 104.88 C361.09 107.22 364.02 109.28 367.31 111.13 C372.08 113.93 376.37 116.9 380.5 120.58 C383.12 122.83 385.91 124.83 388.71 126.84 C390.31 128.13 390.31 128.13 391.31 130.13 C392.64 130.81 393.97 131.47 395.31 132.13 C396.57 133.16 397.8 134.22 399 135.32 C403.9 139.71 409.03 143.8 414.39 147.61 C416.93 149.62 418.75 151.99 420.75 154.51 C422.46 156.29 424.06 157.16 426.31 158.13 C426.31 158.79 426.31 159.45 426.31 160.13 C426.9 160.4 427.49 160.68 428.09 160.96 C433.51 163.83 438.19 168.64 442.31 173.13 C442.31 173.79 442.31 174.45 442.31 175.13 C443.3 175.46 444.29 175.79 445.31 176.13 C445.31 176.79 445.31 177.45 445.31 178.13 C445.97 178.13 446.63 178.13 447.31 178.13 C447.31 178.79 447.31 179.45 447.31 180.13 C447.97 180.13 448.63 180.13 449.31 180.13 C450.86 181.67 450.86 181.67 452.62 183.76 C453.56 184.86 453.56 184.86 454.52 185.98 C456.78 188.7 459.04 191.42 461.31 194.13 C464.99 198.49 468.79 202.64 472.87 206.63 C476.21 209.93 479.05 213.28 481.77 217.09 C484.13 220.23 486.81 223.08 489.48 225.96 C491.39 228.23 492.81 230.57 494.31 233.13 C495.03 234 495.75 234.87 496.5 235.76 C498.31 238.13 498.31 238.13 498.31 241.13 C498.89 241.36 499.46 241.59 500.06 241.82 C503.62 243.9 505.6 246.94 507.68 250.45 C509.6 253.61 511.82 256.46 514.1 259.36 C515.31 261.13 515.31 261.13 515.31 263.13 C515.97 263.13 516.63 263.13 517.31 263.13 C518.86 265.48 518.86 265.48 520.62 268.63 C524 274.6 527.51 280.43 531.31 286.13 C531.31 287.12 531.31 288.11 531.31 289.13 C532.3 289.46 533.29 289.79 534.31 290.13 C534.31 291.12 534.31 292.11 534.31 293.13 C535.02 293.81 535.02 293.81 535.75 294.51 C537.75 296.6 537.93 298.31 538.31 301.13 C538.97 301.13 539.63 301.13 540.31 301.13 C540.96 302.49 540.96 302.49 541.62 303.88 C543.09 306.98 543.09 306.98 544.66 308.8 C547.07 312.21 548.65 315.96 550.37 319.76 C551.07 321.29 551.77 322.83 552.47 324.36 C552.77 325.04 553.08 325.71 553.39 326.41 C554.3 328.32 554.3 328.32 556.31 330.13 C557.05 331.82 557.78 333.5 558.48 335.2 C559.29 337.08 560.18 338.89 561.13 340.7 C561.44 341.29 561.75 341.88 562.06 342.48 C562.69 343.68 563.33 344.87 563.97 346.06 C565.79 349.57 566.71 352.17 566.31 356.13 C566.97 356.13 567.63 356.13 568.31 356.13 C568.71 357.18 568.71 357.18 569.12 358.26 C570.29 361.21 570.29 361.21 571.93 364.2 C573.31 367.13 573.31 367.13 573.31 371.13 C573.97 371.13 574.63 371.13 575.31 371.13 C575.7 372.37 576.09 373.61 576.5 374.88 C577.78 378.76 579.27 382.5 580.87 386.26 C582.67 390.51 584.11 394.67 585.31 399.13 C585.8 400.47 586.3 401.8 586.81 403.13 C588.2 406.75 589.24 410.41 590.31 414.13 C590.78 415.43 591.26 416.72 591.75 418.01 C592.13 419.01 592.13 419.01 592.51 420.03 C593.06 421.48 593.61 422.92 594.17 424.36 C596.05 429.52 596.61 433.64 596.31 439.13 C596.97 439.13 597.63 439.13 598.31 439.13 C598.31 441.44 598.31 443.75 598.31 446.13 C598.97 446.13 599.63 446.13 600.31 446.13 C602.21 452.93 603.72 459.05 603.31 466.13 C603.97 466.13 604.63 466.13 605.31 466.13 C605.44 467.06 605.57 467.99 605.71 468.94 C605.89 470.14 606.06 471.34 606.25 472.57 C606.51 474.36 606.51 474.36 606.77 476.19 C607 479.01 607 479.01 608.31 480.13 C608.38 481.99 608.39 483.84 608.37 485.7 C608.36 486.71 608.35 487.72 608.34 488.76 C608.33 489.54 608.32 490.33 608.31 491.13 C608.97 491.13 609.63 491.13 610.31 491.13 C611.66 495.19 611.74 499.17 612.03 503.42 C612.14 506.1 612.14 506.1 613.31 508.13 C613.49 510.57 613.64 513 613.75 515.45 C613.91 520.62 613.91 520.62 615.31 525.54 C616.79 529.38 616.74 533.17 616.87 537.26 C616.93 538.86 616.99 540.47 617.06 542.08 C617.1 543.14 617.1 543.14 617.14 544.22 C617.25 546.35 617.25 546.35 618.31 549.13 C618.4 550.57 618.44 552.02 618.44 553.46 C618.45 554.34 618.45 555.23 618.46 556.14 C618.45 557.59 618.45 557.59 618.45 559.06 C618.46 560.59 618.46 560.59 618.46 562.15 C618.47 565.53 618.48 568.91 618.48 572.29 C618.48 574.63 618.48 576.97 618.49 579.32 C618.49 584.23 618.49 589.14 618.49 594.06 C618.49 600.36 618.51 606.67 618.52 612.97 C618.54 617.81 618.54 622.65 618.54 627.49 C618.54 629.81 618.54 632.14 618.55 634.46 C618.56 637.71 618.56 640.95 618.55 644.2 C618.56 645.65 618.56 645.65 618.57 647.13 C618.56 648.45 618.56 648.45 618.56 649.81 C618.56 650.57 618.56 651.34 618.56 652.13 C618.31 654.13 618.31 654.13 616.31 657.13 C616.07 659.21 616.07 659.21 616.18 661.48 C616.2 662.31 616.21 663.14 616.23 664 C616.26 664.87 616.28 665.74 616.31 666.63 C616.36 668.35 616.4 670.07 616.43 671.79 C616.46 672.55 616.48 673.31 616.5 674.1 C616.31 676.13 616.31 676.13 614.31 679.13 C613.99 682.57 613.85 685.97 613.74 689.42 C613.51 694.93 613.51 694.93 611.31 697.13 C611.1 699.96 611.1 699.96 611.25 703.13 C611.41 708.94 611.41 708.94 610.31 711.13 C609.65 711.13 608.99 711.13 608.31 711.13 C608.33 711.98 608.36 712.82 608.38 713.69 C608.41 715.33 608.41 715.33 608.43 717.01 C608.46 718.1 608.48 719.19 608.5 720.31 C608.31 723.13 608.31 723.13 606.31 725.13 C606.1 727.28 606.1 727.28 606.25 729.63 C606.41 733.94 606.41 733.94 605.31 736.13 C604.65 736.13 603.99 736.13 603.31 736.13 C603.33 736.76 603.36 737.39 603.38 738.03 C603.41 739.26 603.41 739.26 603.43 740.51 C603.46 741.32 603.48 742.13 603.5 742.97 C603.31 745.13 603.31 745.13 601.31 747.13 C601.27 749.47 601.27 751.8 601.31 754.13 C600.98 754.79 600.65 755.45 600.31 756.13 C599.65 756.13 598.99 756.13 598.31 756.13 C598.31 758.44 598.31 760.75 598.31 763.13 C597.65 763.13 596.99 763.13 596.31 763.13 C596.33 764.41 596.35 765.69 596.37 767.01 C596.43 770.88 596.43 770.88 595.31 773.13 C594.65 773.13 593.99 773.13 593.31 773.13 C593.37 774.74 593.37 774.74 593.43 776.38 C593.32 779.92 593.02 781.21 591.31 784.13 C590.97 785.46 590.64 786.8 590.31 788.13 C589.85 789.41 589.37 790.68 588.87 791.95 C587.89 794.51 587.06 796.99 586.31 799.63 C585.38 802.89 584.25 805.98 583.04 809.13 C581.96 812.09 581.13 815.09 580.31 818.13 C579.65 818.13 578.99 818.13 578.31 818.13 C578.31 819.78 578.31 821.43 578.31 823.13 C577.65 823.13 576.99 823.13 576.31 823.13 C576.33 824.08 576.35 825.03 576.37 826.01 C576.31 829.13 576.31 829.13 575.31 831.13 C574.65 831.13 573.99 831.13 573.31 831.13 C573.12 832.22 573.12 832.22 572.93 833.32 C572.32 836.09 571.42 838.53 570.31 841.13 C569.65 841.13 568.99 841.13 568.31 841.13 C568.37 842 568.43 842.87 568.5 843.76 C568.28 847.57 567.19 849.84 565.31 853.13 C564.65 853.13 563.99 853.13 563.31 853.13 C563.31 854.78 563.31 856.43 563.31 858.13 C562.65 858.13 561.99 858.13 561.31 858.13 C560.98 859.78 560.65 861.43 560.31 863.13 C559.65 863.13 558.99 863.13 558.31 863.13 C558.37 864.25 558.37 864.25 558.43 865.38 C558.3 868.27 557.92 869.76 556.31 872.13 C555.32 872.46 554.33 872.79 553.31 873.13 C553.31 874.78 553.31 876.43 553.31 878.13 C552.65 878.13 551.99 878.13 551.31 878.13 C550.98 879.78 550.65 881.43 550.31 883.13 C549.65 883.13 548.99 883.13 548.31 883.13 C548.25 883.9 548.18 884.66 548.12 885.45 C547.31 888.13 547.31 888.13 544.81 889.82 C543.57 890.47 543.57 890.47 542.31 891.13 C541.98 891.79 541.65 892.45 541.31 893.13 C542.3 892.14 543.29 891.15 544.31 890.13 C545.3 890.63 545.3 890.63 546.31 891.13 C545.69 891.85 545.07 892.58 544.43 893.32 C542.47 895.92 541.36 898.08 540.31 901.13 C539.65 901.13 538.99 901.13 538.31 901.13 C538.21 901.85 538.1 902.58 538 903.32 C537.01 907.36 535.24 910.2 532.31 913.13 C531.84 914.34 531.84 914.34 531.37 915.57 C530.29 918.17 529.3 919.23 527.31 921.13 C526.13 923.23 526.13 923.23 525.31 925.13 C524.32 924.47 523.33 923.81 522.31 923.13 C521.98 926.1 521.65 929.07 521.31 932.13 C520.32 932.46 519.33 932.79 518.31 933.13 C518.18 934.25 518.18 934.25 518.06 935.38 C517.16 938.68 515.92 939.99 513.31 942.13 C512.65 942.13 511.99 942.13 511.31 942.13 C511.43 943.25 511.43 943.25 511.56 944.38 C511.23 947.96 509.91 948.76 507.31 951.13 C506.07 953.27 506.07 953.27 505.31 955.13 C504.98 954.47 504.65 953.81 504.31 953.13 C503.32 953.13 502.33 953.13 501.31 953.13 C501.64 955.11 501.97 957.09 502.31 959.13 C501.32 959.13 500.33 959.13 499.31 959.13 C499.1 960.14 498.9 961.15 498.68 962.2 C497.58 966.14 495.51 968.6 492.75 971.55 C491.1 973.28 491.1 973.28 489.31 976.13 C487.05 978.42 484.73 980.65 482.4 982.88 C480.47 984.96 479.49 986.59 478.31 989.13 C473.88 994.89 468.57 999.91 463.35 1004.93 C461.11 1007.05 461.11 1007.05 460.31 1010.13 C458.25 1010.82 458.25 1010.82 456.31 1011.13 C457.3 1011.63 457.3 1011.63 458.31 1012.13 C453.97 1016.52 449.63 1020.9 445.28 1025.27 C443.81 1026.76 442.33 1028.25 440.85 1029.74 C438.73 1031.88 436.61 1034.02 434.48 1036.16 C433.82 1036.82 433.17 1037.49 432.49 1038.18 C431.56 1039.11 431.56 1039.11 430.61 1040.06 C430.07 1040.61 429.52 1041.15 428.97 1041.72 C427.18 1043.24 425.42 1044.13 423.31 1045.13 C421.63 1046.6 421.63 1046.6 420.07 1048.32 C419.18 1049.24 419.18 1049.24 418.27 1050.19 C417.05 1051.48 415.83 1052.78 414.62 1054.08 C410.99 1057.84 408.44 1059.69 403.31 1061.13 C401.48 1062.69 401.48 1062.69 400.12 1064.57 C395.39 1070.6 395.39 1070.6 392.34 1072.1 C389.97 1073.3 388.64 1074.73 386.87 1076.7 C383.97 1079.71 382.41 1080.38 378.31 1081.13 C377.05 1082.58 375.8 1084.04 374.64 1085.57 C372.58 1087.99 369.98 1089.47 367.31 1091.13 C366.65 1091.79 365.99 1092.45 365.31 1093.13 C364.55 1093.4 363.78 1093.67 363 1093.95 C359.66 1095.42 357.84 1097.54 355.31 1100.13 C353.67 1101.18 352.01 1102.19 350.31 1103.13 C349.32 1103.79 348.33 1104.45 347.31 1105.13 C346.32 1105.13 345.33 1105.13 344.31 1105.13 C343.98 1106.12 343.65 1107.11 343.31 1108.13 C341.65 1108.83 339.99 1109.49 338.31 1110.13 C337.81 1110.63 337.32 1111.12 336.81 1111.63 C334.88 1113.56 332.83 1114.13 330.31 1115.13 C329.85 1115.62 329.39 1116.1 328.91 1116.6 C327.07 1118.36 325.6 1118.92 323.18 1119.7 C321.09 1120.34 321.09 1120.34 319.31 1121.13 C318.98 1121.79 318.65 1122.45 318.31 1123.13 C317.13 1123.6 317.13 1123.6 315.93 1124.07 C313.31 1124.93 313.31 1124.93 311.81 1126.63 C309.83 1128.61 307.96 1129.29 305.31 1130.13 C303.99 1130.13 302.67 1130.13 301.31 1130.13 C300.98 1131.12 300.65 1132.11 300.31 1133.13 C298.99 1133.13 297.67 1133.13 296.31 1133.13 C296.31 1133.79 296.31 1134.45 296.31 1135.13 C294.66 1135.13 293.01 1135.13 291.31 1135.13 C290.98 1136.12 290.65 1137.11 290.31 1138.13 C288.99 1138.13 287.67 1138.13 286.31 1138.13 C286.31 1138.79 286.31 1139.45 286.31 1140.13 C284.66 1140.13 283.01 1140.13 281.31 1140.13 C280.98 1141.12 280.65 1142.11 280.31 1143.13 C278.99 1143.13 277.67 1143.13 276.31 1143.13 C276.31 1143.79 276.31 1144.45 276.31 1145.13 C274.66 1145.13 273.01 1145.13 271.31 1145.13 C270.98 1146.12 270.65 1147.11 270.31 1148.13 C266.6 1150.15 263.48 1150.33 259.31 1150.13 C258.98 1151.12 258.65 1152.11 258.31 1153.13 C256.99 1153.52 255.65 1153.84 254.31 1154.13 C253.34 1154.63 252.37 1155.12 251.37 1155.63 C247.98 1157.3 245.08 1158.13 241.31 1158.13 C241.31 1158.79 241.31 1159.45 241.31 1160.13 C239.66 1160.13 238.01 1160.13 236.31 1160.13 C236.31 1160.79 236.31 1161.45 236.31 1162.13 C235.32 1162.4 234.33 1162.67 233.31 1162.95 C230.58 1163.72 227.95 1164.62 225.31 1165.63 C221.69 1167.02 218.03 1168.07 214.31 1169.13 C212.97 1169.62 211.64 1170.12 210.31 1170.63 C206.69 1172.02 203.03 1173.07 199.31 1174.13 C197.23 1174.88 195.17 1175.65 193.11 1176.45 C188.98 1178.02 185.71 1178.22 181.31 1178.13 C181.31 1178.79 181.31 1179.45 181.31 1180.13 C179 1180.13 176.69 1180.13 174.31 1180.13 C174.31 1180.79 174.31 1181.45 174.31 1182.13 C171.31 1183.13 171.31 1183.13 168.25 1183.07 C165.18 1182.8 165.18 1182.8 163.31 1185.13 C161.25 1185.48 161.25 1185.48 158.87 1185.63 C155.37 1185.86 154.37 1186.09 151.31 1188.13 C148.83 1188.33 148.83 1188.33 146.12 1188.26 C145.22 1188.24 144.32 1188.22 143.39 1188.2 C142.36 1188.17 142.36 1188.17 141.31 1188.13 C141.31 1188.79 141.31 1189.45 141.31 1190.13 C137.35 1190.13 133.39 1190.13 129.31 1190.13 C129.31 1190.79 129.31 1191.45 129.31 1192.13 C125.39 1193.44 121.91 1193.11 117.8 1192.97 C115.13 1192.87 115.13 1192.87 113.31 1195.13 C110.66 1195.39 108.09 1195.55 105.43 1195.63 C100.22 1195.63 100.22 1195.63 95.33 1197.15 C93.03 1198.27 91.63 1198.34 89.09 1198.26 C88.3 1198.24 87.51 1198.23 86.71 1198.21 C85.89 1198.19 85.08 1198.16 84.25 1198.13 C82.63 1198.08 81.01 1198.04 79.4 1198.01 C78.33 1197.97 78.33 1197.97 77.24 1197.94 C74.98 1198.01 74.98 1198.01 72.31 1200.13 C70.33 1200.38 70.33 1200.38 68.03 1200.38 C66.72 1200.39 66.72 1200.39 65.38 1200.39 C63.95 1200.38 63.95 1200.38 62.48 1200.38 C61.48 1200.38 60.47 1200.38 59.43 1200.38 C56.09 1200.39 52.75 1200.37 49.41 1200.36 C47.09 1200.36 44.77 1200.36 42.45 1200.36 C37.59 1200.36 32.73 1200.35 27.87 1200.34 C21.63 1200.32 15.4 1200.32 9.16 1200.32 C4.37 1200.32 -0.41 1200.31 -5.2 1200.31 C-7.5 1200.3 -9.8 1200.3 -12.1 1200.3 C-15.31 1200.3 -18.53 1200.29 -21.74 1200.28 C-23.17 1200.28 -23.17 1200.28 -24.63 1200.28 C-25.5 1200.28 -26.38 1200.27 -27.28 1200.27 C-28.04 1200.26 -28.8 1200.26 -29.58 1200.26 C-31.73 1200.13 -33.62 1199.7 -35.69 1199.13 C-37.07 1199.01 -38.46 1198.93 -39.84 1198.89 C-40.62 1198.85 -41.4 1198.82 -42.2 1198.79 C-43.81 1198.73 -45.43 1198.67 -47.05 1198.62 C-51.44 1198.42 -54.61 1197.82 -58.69 1196.13 C-61.94 1195.8 -65.17 1195.62 -68.43 1195.48 C-73.52 1195.22 -73.52 1195.22 -75.69 1194.13 C-78.74 1193.86 -81.79 1193.69 -84.84 1193.51 C-87.69 1193.13 -87.69 1193.13 -90.69 1191.13 C-93.4 1190.71 -93.4 1190.71 -96.32 1190.57 C-101.59 1190.23 -101.59 1190.23 -102.69 1189.13 C-104.68 1188.76 -106.69 1188.44 -108.69 1188.13 C-114.58 1187.24 -114.58 1187.24 -115.69 1186.13 C-119.27 1185.47 -122.84 1184.89 -126.43 1184.33 C-127.19 1184.2 -127.94 1184.08 -128.71 1183.95 C-129.75 1183.79 -129.75 1183.79 -130.81 1183.62 C-132.69 1183.13 -132.69 1183.13 -135.69 1181.13 C-138.02 1180.74 -140.35 1180.4 -142.69 1180.13 C-142.69 1179.47 -142.69 1178.81 -142.69 1178.13 C-144.3 1178.19 -144.3 1178.19 -145.94 1178.26 C-149.69 1178.13 -149.69 1178.13 -151.51 1177.22 C-155.35 1175.31 -159.62 1174.78 -163.79 1173.91 C-166.69 1173.13 -166.69 1173.13 -168.69 1171.13 C-170.65 1170.57 -172.64 1170.08 -174.63 1169.63 C-178.3 1168.81 -180.53 1168.24 -183.69 1166.13 C-186.8 1165.17 -189.88 1164.3 -193.07 1163.63 C-193.6 1163.47 -194.14 1163.3 -194.69 1163.13 C-195.02 1162.47 -195.35 1161.81 -195.69 1161.13 C-197.25 1160.65 -198.82 1160.18 -200.39 1159.76 C-207.39 1157.85 -214.34 1155.66 -220.69 1152.13 C-220.69 1151.47 -220.69 1150.81 -220.69 1150.13 C-221.37 1150.01 -222.05 1149.89 -222.75 1149.76 C-226.12 1149.04 -229.39 1148.1 -232.69 1147.13 C-232.69 1146.47 -232.69 1145.81 -232.69 1145.13 C-233.41 1145.01 -234.14 1144.89 -234.88 1144.76 C-237.65 1144.14 -240.09 1143.25 -242.69 1142.13 C-242.69 1141.47 -242.69 1140.81 -242.69 1140.13 C-243.41 1140.01 -244.14 1139.89 -244.88 1139.76 C-247.65 1139.14 -250.09 1138.25 -252.69 1137.13 C-252.69 1136.47 -252.69 1135.81 -252.69 1135.13 C-253.41 1135.01 -254.14 1134.89 -254.88 1134.76 C-257.65 1134.14 -260.09 1133.25 -262.69 1132.13 C-262.69 1131.47 -262.69 1130.81 -262.69 1130.13 C-263.39 1130.03 -264.09 1129.93 -264.82 1129.82 C-269.94 1128.6 -274.24 1125.86 -278.69 1123.13 C-279.35 1122.8 -280.01 1122.47 -280.69 1122.13 C-280.69 1121.47 -280.69 1120.81 -280.69 1120.13 C-281.37 1120.05 -282.05 1119.97 -282.75 1119.88 C-286.57 1118.91 -289.33 1117.17 -292.69 1115.13 C-292.69 1114.47 -292.69 1113.81 -292.69 1113.13 C-293.45 1113.03 -294.22 1112.93 -295 1112.82 C-298.01 1112.05 -298.57 1111.26 -300.69 1109.13 C-302.59 1108.04 -302.59 1108.04 -304.63 1107.13 C-308.25 1105.39 -311.33 1103.62 -314.07 1100.63 C-315.78 1098.9 -315.78 1098.9 -318.82 1097.63 C-321.69 1096.13 -321.69 1096.13 -322.69 1093.13 C-323.45 1093.03 -324.22 1092.93 -325 1092.82 C-328.01 1092.05 -328.6 1091.3 -330.69 1089.13 C-332.15 1088.42 -332.15 1088.42 -333.63 1087.7 C-336.73 1086.11 -338.29 1084.61 -340.69 1082.13 C-343.95 1079.55 -347.32 1077.11 -350.71 1074.7 C-354.38 1072.03 -357.61 1069.28 -360.75 1066.01 C-363.13 1063.55 -365.22 1061.65 -368.25 1060.07 C-371.9 1058.02 -374.28 1055.75 -377.11 1052.72 C-378.81 1050.91 -378.81 1050.91 -381.69 1049.13 C-382.31 1048.33 -382.93 1047.52 -383.57 1046.7 C-385.82 1043.98 -387.68 1042.91 -390.69 1041.13 C-395.26 1037.42 -399.72 1033.48 -403.69 1029.13 C-403.69 1028.47 -403.69 1027.81 -403.69 1027.13 C-404.68 1026.8 -405.67 1026.47 -406.69 1026.13 C-406.69 1025.47 -406.69 1024.81 -406.69 1024.13 C-407.35 1024.13 -408.01 1024.13 -408.69 1024.13 C-410.17 1022.63 -410.17 1022.63 -411.88 1020.57 C-414.79 1017.13 -417.83 1013.96 -421.11 1010.87 C-422.69 1009.13 -422.69 1009.13 -423.98 1006.84 C-426.7 1002.55 -430.45 999.33 -434.13 995.86 C-434.7 995.31 -435.27 994.76 -435.86 994.19 C-436.38 993.7 -436.9 993.21 -437.43 992.7 C-438.69 991.13 -438.69 991.13 -439.18 989 C-439.35 988.39 -439.52 987.77 -439.69 987.13 C-440.68 986.8 -441.67 986.47 -442.69 986.13 C-444.16 984.68 -444.16 984.68 -445.63 982.88 C-446.15 982.25 -446.67 981.62 -447.21 980.97 C-447.94 980.06 -447.94 980.06 -448.69 979.13 C-449.41 978.27 -450.14 977.4 -450.88 976.51 C-452.69 974.13 -452.69 974.13 -454.25 971.45 C-455.63 968.87 -455.63 968.87 -458.69 967.13 C-459.17 966.16 -459.64 965.19 -460.13 964.2 C-461.4 961.11 -461.4 961.11 -463.63 959.76 C-465.88 957.98 -466.44 956.82 -467.63 954.26 C-469.41 950.43 -471.66 948.09 -474.69 945.13 C-475.69 943.49 -476.68 941.85 -477.59 940.16 C-479.38 936.86 -481.37 933.68 -483.32 930.46 C-484.54 928.39 -485.65 926.3 -486.69 924.13 C-487.35 924.13 -488.01 924.13 -488.69 924.13 C-488.79 923.57 -488.89 923 -489 922.41 C-489.83 919.68 -491.11 917.93 -492.82 915.63 C-501.42 903.65 -508.18 890.34 -514.69 877.13 C-515.65 875.22 -516.61 873.3 -517.57 871.38 C-518.31 869.89 -518.31 869.89 -519.07 868.36 C-520.23 866.05 -521.41 863.74 -522.59 861.43 C-522.91 860.81 -523.23 860.19 -523.56 859.55 C-524.46 857.78 -525.37 856.02 -526.27 854.26 C-527.54 851.47 -528.1 849.11 -528.69 846.13 C-529.35 845.8 -530.01 845.47 -530.69 845.13 C-530.36 844.47 -530.03 843.81 -529.69 843.13 C-530.35 842.8 -531.01 842.47 -531.69 842.13 C-532.84 839.67 -533.88 837.22 -534.88 834.7 C-535.18 833.94 -535.49 833.19 -535.8 832.41 C-536.77 829.99 -537.73 827.56 -538.69 825.13 C-539.01 824.33 -539.33 823.53 -539.65 822.71 C-540.59 820.35 -541.52 817.99 -542.44 815.63 C-542.72 814.92 -543 814.2 -543.29 813.46 C-544.99 809.1 -546.53 804.7 -547.99 800.26 C-548.98 797.28 -550.05 794.33 -551.13 791.38 C-553.53 784.69 -555.68 777.95 -557.69 771.13 C-558.03 769.99 -558.37 768.84 -558.72 767.66 C-560.72 760.81 -562.48 753.95 -563.98 746.97 C-564.6 744.17 -564.6 744.17 -565.68 741.79 C-567.05 738.18 -567.59 734.56 -568.19 730.76 C-568.87 726.53 -569.6 722.46 -570.78 718.34 C-571.78 714.81 -571.84 711.78 -571.69 708.13 C-572.35 707.8 -573.01 707.47 -573.69 707.13 C-574.07 704.33 -574.07 704.33 -574.25 700.82 C-574.46 697.09 -574.77 693.73 -575.69 690.13 C-577.95 677.77 -579.17 665.69 -578.69 653.13 C-579.35 653.13 -580.01 653.13 -580.69 653.13 C-581.76 637 -581.85 620.89 -581.82 604.73 C-581.82 601.1 -581.82 597.47 -581.83 593.84 C-581.83 590.98 -581.83 588.12 -581.83 585.26 C-581.82 583.29 -581.83 581.32 -581.83 579.34 C-581.8 567.88 -581.4 556.48 -579.69 545.13 C-579.58 543.79 -579.48 542.44 -579.41 541.09 C-579.35 540.07 -579.35 540.07 -579.3 539.03 C-579.23 537.63 -579.16 536.23 -579.09 534.83 C-578.9 531.46 -578.52 528.39 -577.69 525.13 C-577.49 523.77 -577.31 522.4 -577.16 521.02 C-577.07 520.27 -576.98 519.52 -576.89 518.74 C-576.81 517.96 -576.72 517.18 -576.63 516.38 C-576.54 515.59 -576.45 514.8 -576.35 513.98 C-576.13 512.03 -575.91 510.08 -575.69 508.13 C-575.03 508.13 -574.37 508.13 -573.69 508.13 C-574.19 506.65 -574.19 506.65 -574.69 505.13 C-574.61 502.79 -574.61 502.79 -574.32 500.2 C-574.23 499.34 -574.14 498.49 -574.04 497.61 C-573.73 495.38 -573.24 493.31 -572.69 491.13 C-572.32 488.89 -571.97 486.64 -571.63 484.38 C-571.45 483.21 -571.28 482.04 -571.09 480.84 C-570.96 479.94 -570.83 479.05 -570.69 478.13 C-570.03 478.13 -569.37 478.13 -568.69 478.13 C-568.69 475.16 -568.69 472.19 -568.69 469.13 C-568.03 469.13 -567.37 469.13 -566.69 469.13 C-567.19 467.65 -567.19 467.65 -567.69 466.13 C-567.39 463.94 -567.39 463.94 -566.82 461.57 C-566.54 460.39 -566.54 460.39 -566.26 459.19 C-565.69 457.13 -565.69 457.13 -564.69 455.13 C-564.33 453.14 -564 451.14 -563.69 449.13 C-563.03 449.13 -562.37 449.13 -561.69 449.13 C-561.9 448.58 -562.1 448.02 -562.32 447.45 C-562.8 444.46 -561.91 442.85 -560.69 440.13 C-560.69 439.47 -560.69 438.81 -560.69 438.13 C-560.03 438.13 -559.37 438.13 -558.69 438.13 C-558.73 437.08 -558.77 436.03 -558.82 434.95 C-558.69 431.23 -558.07 429.49 -556.69 426.13 C-555.89 423.06 -555.18 419.97 -554.47 416.88 C-553.69 414.13 -553.69 414.13 -551.69 411.13 C-551 409.09 -550.36 407.02 -549.75 404.95 C-548.61 401.12 -547.45 397.35 -546 393.63 C-544.65 390.3 -544.65 390.3 -544.13 387.32 C-543.69 385.13 -543.69 385.13 -541.69 382.13 C-541.06 380.02 -541.06 380.02 -540.69 378.13 C-540.03 378.13 -539.37 378.13 -538.69 378.13 C-538.73 377.37 -538.77 376.61 -538.82 375.82 C-538.69 373.13 -538.69 373.13 -536.69 370.13 C-535.4 367.17 -534.39 364.28 -533.69 361.13 C-533.03 361.13 -532.37 361.13 -531.69 361.13 C-531.55 360.18 -531.4 359.24 -531.25 358.26 C-530.67 355 -529.72 353.19 -528.19 350.26 C-527.01 347.8 -526.2 345.78 -525.69 343.13 C-525.03 343.13 -524.37 343.13 -523.69 343.13 C-523.51 341.99 -523.51 341.99 -523.32 340.82 C-522.69 338.13 -522.69 338.13 -520.69 335.13 C-520.69 334.47 -520.69 333.81 -520.69 333.13 C-520.03 333.13 -519.37 333.13 -518.69 333.13 C-518.59 332.39 -518.49 331.65 -518.38 330.88 C-517.64 327.91 -516.5 326.55 -514.69 324.13 C-514.55 323.33 -514.4 322.52 -514.25 321.7 C-513.53 318.38 -511.82 316.76 -509.69 314.13 C-509.11 312.92 -508.57 311.69 -508.07 310.45 C-506.69 307.13 -506.69 307.13 -504.69 305.13 C-504.55 304.49 -504.4 303.85 -504.25 303.2 C-503.58 300.72 -502.68 299.72 -500.69 298.13 C-500.03 298.13 -499.37 298.13 -498.69 298.13 C-498.78 297.05 -498.78 297.05 -498.88 295.95 C-498.65 292.57 -497.69 290.83 -495.69 288.13 C-495.03 288.13 -494.37 288.13 -493.69 288.13 C-493.59 287.37 -493.49 286.61 -493.38 285.82 C-492.69 283.13 -492.69 283.13 -491.34 281.81 C-489.2 279.63 -488.04 277.27 -486.63 274.57 C-483.9 269.34 -483.9 269.34 -481.69 267.13 C-480.98 265.48 -480.31 263.82 -479.69 262.13 C-479.03 262.13 -478.37 262.13 -477.69 262.13 C-477.03 260.81 -476.37 259.49 -475.69 258.13 C-475.03 258.13 -474.37 258.13 -473.69 258.13 C-473.59 257.37 -473.49 256.61 -473.38 255.82 C-472.61 252.81 -471.86 252.22 -469.69 250.13 C-469.24 249.18 -468.78 248.24 -468.32 247.26 C-466.54 243.84 -464.44 241.81 -461.69 239.13 C-460.68 237.47 -459.68 235.81 -458.69 234.13 C-457.38 232.78 -456.05 231.44 -454.69 230.13 C-452.74 227.39 -452.74 227.39 -451.84 225.22 C-449.89 221.68 -446.8 219.21 -443.88 216.45 C-441.64 214.25 -441.64 214.25 -440.28 211.72 C-437.83 207.74 -434.44 204.8 -431.07 201.59 C-428.03 198.64 -425.76 195.89 -423.69 192.13 C-419.54 186.42 -419.54 186.42 -415.69 185.13 C-414.99 183.82 -414.33 182.48 -413.69 181.13 C-412.12 179.3 -412.12 179.3 -410.29 177.46 C-409.62 176.8 -408.96 176.13 -408.28 175.45 C-407.59 174.77 -406.9 174.09 -406.19 173.38 C-405.5 172.69 -404.81 171.99 -404.1 171.27 C-403.44 170.61 -402.78 169.95 -402.1 169.27 C-401.49 168.67 -400.89 168.07 -400.26 167.45 C-398.69 166.13 -398.69 166.13 -396.69 166.13 C-396.43 165.54 -396.17 164.94 -395.9 164.32 C-394.62 162.01 -393.4 160.75 -391.38 159.07 C-390.81 158.58 -390.23 158.1 -389.64 157.6 C-387.69 156.13 -387.69 156.13 -385.34 154.82 C-381.96 152.67 -379.44 150.02 -376.69 147.13 C-373.22 143.48 -370.09 140.66 -365.69 138.13 C-364.46 136.99 -363.27 135.8 -362.13 134.57 C-359.79 132.06 -357.8 130.58 -354.69 129.13 C-352.17 127.24 -349.89 125.33 -347.69 123.07 C-345.52 120.96 -343.29 119.68 -340.69 118.13 C-339.7 117.31 -338.71 116.48 -337.69 115.63 C-335.08 113.46 -332.6 111.86 -329.69 110.13 C-327.63 108.59 -325.59 107.02 -323.56 105.44 C-321.69 104.13 -321.69 104.13 -318.69 103.13 C-318.69 102.47 -318.69 101.81 -318.69 101.13 C-318.07 101.01 -317.45 100.89 -316.82 100.76 C-314.5 100.26 -314.5 100.26 -312.69 98.13 C-311.37 98.13 -310.05 98.13 -308.69 98.13 C-308.49 97.53 -308.28 96.94 -308.07 96.32 C-306.18 93.32 -303.86 92.62 -300.69 91.13 C-300.16 90.58 -299.62 90.02 -299.07 89.45 C-297.69 88.13 -297.69 88.13 -293.69 88.13 C-293.69 87.47 -293.69 86.81 -293.69 86.13 C-292.55 85.73 -292.55 85.73 -291.38 85.32 C-288.71 84.34 -288.71 84.34 -287.19 82.63 C-285.25 80.69 -283.25 80.14 -280.69 79.13 C-278.68 77.82 -276.68 76.48 -274.69 75.13 C-270.89 72.7 -268.37 71.13 -263.69 71.13 C-263.69 70.47 -263.69 69.81 -263.69 69.13 C-262.04 68.8 -260.39 68.47 -258.69 68.13 C-258.69 67.47 -258.69 66.81 -258.69 66.13 C-257.04 66.13 -255.39 66.13 -253.69 66.13 C-253.36 65.14 -253.03 64.15 -252.69 63.13 C-251.37 63.13 -250.05 63.13 -248.69 63.13 C-248.69 62.47 -248.69 61.81 -248.69 61.13 C-247.04 61.13 -245.39 61.13 -243.69 61.13 C-243.36 60.14 -243.03 59.15 -242.69 58.13 C-241.37 58.13 -240.05 58.13 -238.69 58.13 C-238.69 57.47 -238.69 56.81 -238.69 56.13 C-237.04 56.13 -235.39 56.13 -233.69 56.13 C-233.69 55.47 -233.69 54.81 -233.69 54.13 C-232.62 53.84 -231.55 53.56 -230.44 53.26 C-227.58 52.4 -225.31 51.49 -222.69 50.13 C-222.03 50.13 -221.37 50.13 -220.69 50.13 C-220.69 49.47 -220.69 48.81 -220.69 48.13 C-218.9 47.44 -217.11 46.75 -215.32 46.07 C-214.32 45.69 -213.32 45.3 -212.29 44.91 C-209.69 44.13 -209.69 44.13 -207.69 45.13 C-207.69 44.47 -207.69 43.81 -207.69 43.13 C-206.37 43.13 -205.05 43.13 -203.69 43.13 C-203.69 42.47 -203.69 41.81 -203.69 41.13 C-202.72 40.86 -201.75 40.6 -200.75 40.32 C-194.1 38.41 -187.87 36.29 -181.69 33.13 C-177.45 31.64 -173.15 30.4 -168.82 29.2 C-164.95 28.11 -161.17 27.01 -157.44 25.51 C-153.69 24.13 -150.14 23.39 -146.23 22.67 C-139.47 21.43 -139.47 21.43 -133.69 18.13 C-131.26 17.59 -128.83 17.1 -126.38 16.63 C-121.35 15.7 -121.35 15.7 -116.4 14.48 C-114.69 14.13 -114.69 14.13 -111.69 15.13 C-111.69 14.47 -111.69 13.81 -111.69 13.13 C-111.04 13.08 -110.39 13.03 -109.71 12.98 C-104.71 12.56 -100.45 11.79 -95.69 10.13 C-94.26 9.92 -92.82 9.73 -91.38 9.57 C-87.89 9.54 -87.89 9.54 -86.69 8.13 C-83.59 7.81 -80.49 7.62 -77.38 7.41 C-74.78 7.43 -74.78 7.43 -73.69 6.13 C-70.92 5.76 -68.16 5.43 -65.38 5.13 C-63.84 4.97 -62.3 4.8 -60.77 4.63 C-59.74 4.52 -59.74 4.52 -58.69 4.41 C-56.68 4.17 -56.68 4.17 -54.73 3.62 C-52.46 3.08 -50.36 2.94 -48.03 2.85 C-47.16 2.81 -46.28 2.78 -45.38 2.74 C-43.54 2.67 -41.71 2.6 -39.87 2.53 C-38.99 2.49 -38.12 2.45 -37.22 2.41 C-36.42 2.38 -35.63 2.35 -34.8 2.32 C-32.5 2.2 -32.5 2.2 -29.69 1.13 C-19.82 0.13 -9.92 -0.02 0 0 Z M614.31 649.13 C615.31 651.13 615.31 651.13 615.31 651.13 Z M614.31 653.13 C615.31 656.13 615.31 656.13 615.31 656.13 Z M613.31 657.13 C612.98 663.4 612.65 669.67 612.31 676.13 C612.97 676.46 613.63 676.79 614.31 677.13 C614.31 670.53 614.31 663.93 614.31 657.13 C613.98 657.13 613.65 657.13 613.31 657.13 Z M611.31 685.13 C612.31 687.13 612.31 687.13 612.31 687.13 Z M611.31 688.13 C612.31 692.13 612.31 692.13 612.31 692.13 Z M608.31 697.13 C607.98 701.09 607.65 705.05 607.31 709.13 C608.3 709.63 608.3 709.63 609.31 710.13 C609.31 705.84 609.31 701.55 609.31 697.13 C608.98 697.13 608.65 697.13 608.31 697.13 Z M601.31 738.13 C601.31 740.44 601.31 742.75 601.31 745.13 C601.64 745.13 601.97 745.13 602.31 745.13 C602.31 742.82 602.31 740.51 602.31 738.13 C601.98 738.13 601.65 738.13 601.31 738.13 Z M598.31 749.13 C597.65 751.11 596.99 753.09 596.31 755.13 C597.3 755.13 598.29 755.13 599.31 755.13 C599.31 753.15 599.31 751.17 599.31 749.13 C598.98 749.13 598.65 749.13 598.31 749.13 Z M596.31 760.13 C597.31 762.13 597.31 762.13 597.31 762.13 Z M593.31 766.13 C592.98 767.78 592.65 769.43 592.31 771.13 C593.3 771.63 593.3 771.63 594.31 772.13 C594.31 770.15 594.31 768.17 594.31 766.13 C593.98 766.13 593.65 766.13 593.31 766.13 Z M590.31 777.13 C591.3 778.62 591.3 778.62 592.31 780.13 C592.31 779.14 592.31 778.15 592.31 777.13 C591.65 777.13 590.99 777.13 590.31 777.13 Z M588.31 782.13 C587.98 783.45 587.65 784.77 587.31 786.13 C588.3 786.63 588.3 786.63 589.31 787.13 C589.31 785.48 589.31 783.83 589.31 782.13 C588.98 782.13 588.65 782.13 588.31 782.13 Z M585.31 792.13 C586.3 793.62 586.3 793.62 587.31 795.13 C587.31 794.14 587.31 793.15 587.31 792.13 C586.65 792.13 585.99 792.13 585.31 792.13 Z M583.31 797.13 C582.98 798.45 582.65 799.77 582.31 801.13 C583.3 801.63 583.3 801.63 584.31 802.13 C584.31 800.48 584.31 798.83 584.31 797.13 C583.98 797.13 583.65 797.13 583.31 797.13 Z M580.31 807.13 C581.3 808.62 581.3 808.62 582.31 810.13 C582.31 809.14 582.31 808.15 582.31 807.13 C581.65 807.13 580.99 807.13 580.31 807.13 Z M575.31 820.13 C575.31 821.12 575.31 822.11 575.31 823.13 C575.97 822.8 576.63 822.47 577.31 822.13 C577.31 821.47 577.31 820.81 577.31 820.13 C576.65 820.13 575.99 820.13 575.31 820.13 Z M573.31 825.13 C573.31 826.78 573.31 828.43 573.31 830.13 C573.64 830.13 573.97 830.13 574.31 830.13 C574.31 828.48 574.31 826.83 574.31 825.13 C573.98 825.13 573.65 825.13 573.31 825.13 Z M571.31 831.13 C570.98 831.79 570.65 832.45 570.31 833.13 C570.97 833.79 571.63 834.45 572.31 835.13 C571.98 833.81 571.65 832.49 571.31 831.13 Z M569.31 833.13 C570.31 835.13 570.31 835.13 570.31 835.13 Z M551.31 872.13 C551.31 873.78 551.31 875.43 551.31 877.13 C551.64 877.13 551.97 877.13 552.31 877.13 C552.31 875.48 552.31 873.83 552.31 872.13 C551.98 872.13 551.65 872.13 551.31 872.13 Z M533.31 906.13 C532.65 906.79 531.99 907.45 531.31 908.13 C531.64 909.12 531.97 910.11 532.31 911.13 C532.97 910.47 533.63 909.81 534.31 909.13 C533.98 908.14 533.65 907.15 533.31 906.13 Z M527.31 915.13 C526.98 916.12 526.65 917.11 526.31 918.13 C527.3 917.8 528.29 917.47 529.31 917.13 C528.65 916.47 527.99 915.81 527.31 915.13 Z M514.31 935.13 C514.97 935.79 515.63 936.45 516.31 937.13 C516.31 936.47 516.31 935.81 516.31 935.13 C515.65 935.13 514.99 935.13 514.31 935.13 Z M507.31 945.13 C506.98 946.12 506.65 947.11 506.31 948.13 C507.3 947.8 508.29 947.47 509.31 947.13 C508.65 946.47 507.99 945.81 507.31 945.13 Z M496.31 959.13 C497.31 961.13 497.31 961.13 497.31 961.13 Z M495.31 962.13 C495.31 963.12 495.31 964.11 495.31 965.13 C495.97 964.8 496.63 964.47 497.31 964.13 C497.31 963.47 497.31 962.81 497.31 962.13 C496.65 962.13 495.99 962.13 495.31 962.13 Z M475.31 987.13 C475.31 988.12 475.31 989.11 475.31 990.13 C475.97 989.8 476.63 989.47 477.31 989.13 C477.31 988.47 477.31 987.81 477.31 987.13 C476.65 987.13 475.99 987.13 475.31 987.13 Z M405.31 1057.13 C405.31 1057.79 405.31 1058.45 405.31 1059.13 C405.97 1058.8 406.63 1058.47 407.31 1058.13 C406.65 1057.8 405.99 1057.47 405.31 1057.13 Z M381.31 1077.13 C380.98 1077.79 380.65 1078.45 380.31 1079.13 C380.97 1079.13 381.63 1079.13 382.31 1079.13 C381.98 1078.47 381.65 1077.81 381.31 1077.13 Z M374.31 1082.13 C375.31 1084.13 375.31 1084.13 375.31 1084.13 Z M371.31 1083.13 C371.31 1084.12 371.31 1085.11 371.31 1086.13 C371.97 1085.8 372.63 1085.47 373.31 1085.13 C373.31 1084.47 373.31 1083.81 373.31 1083.13 C372.65 1083.13 371.99 1083.13 371.31 1083.13 Z M364.31 1088.13 C364.31 1089.12 364.31 1090.11 364.31 1091.13 C364.97 1090.8 365.63 1090.47 366.31 1090.13 C366.31 1089.47 366.31 1088.81 366.31 1088.13 C365.65 1088.13 364.99 1088.13 364.31 1088.13 Z M353.31 1096.13 C352.98 1097.12 352.65 1098.11 352.31 1099.13 C353.3 1099.13 354.29 1099.13 355.31 1099.13 C354.98 1098.14 354.65 1097.15 354.31 1096.13 C353.98 1096.13 353.65 1096.13 353.31 1096.13 Z M349.31 1099.13 C349.31 1099.79 349.31 1100.45 349.31 1101.13 C349.97 1100.8 350.63 1100.47 351.31 1100.13 C350.65 1099.8 349.99 1099.47 349.31 1099.13 Z M333.31 1109.13 C333.31 1110.12 333.31 1111.11 333.31 1112.13 C333.97 1111.47 334.63 1110.81 335.31 1110.13 C334.65 1109.8 333.99 1109.47 333.31 1109.13 Z M326.31 1113.13 C326.31 1114.12 326.31 1115.11 326.31 1116.13 C326.97 1116.13 327.63 1116.13 328.31 1116.13 C327.98 1115.14 327.65 1114.15 327.31 1113.13 C326.98 1113.13 326.65 1113.13 326.31 1113.13 Z M309.31 1123.13 C309.97 1123.79 310.63 1124.45 311.31 1125.13 C311.31 1124.47 311.31 1123.81 311.31 1123.13 C310.65 1123.13 309.99 1123.13 309.31 1123.13 Z M307.31 1124.13 C307.64 1125.12 307.97 1126.11 308.31 1127.13 C308.97 1126.47 309.63 1125.81 310.31 1125.13 C309.32 1124.8 308.33 1124.47 307.31 1124.13 Z M225.31 1162.13 C225.31 1162.79 225.31 1163.45 225.31 1164.13 C225.97 1163.8 226.63 1163.47 227.31 1163.13 C226.65 1162.8 225.99 1162.47 225.31 1162.13 Z M218.31 1164.13 C217.32 1164.79 216.33 1165.45 215.31 1166.13 C216.96 1166.13 218.61 1166.13 220.31 1166.13 C219.65 1165.47 218.99 1164.81 218.31 1164.13 Z M210.31 1167.13 C210.31 1167.79 210.31 1168.45 210.31 1169.13 C211.3 1168.8 212.29 1168.47 213.31 1168.13 C212.32 1167.8 211.33 1167.47 210.31 1167.13 Z M195.31 1172.13 C195.31 1172.79 195.31 1173.45 195.31 1174.13 C195.97 1173.8 196.63 1173.47 197.31 1173.13 C196.65 1172.8 195.99 1172.47 195.31 1172.13 Z M188.31 1174.13 C186.33 1175.12 186.33 1175.12 184.31 1176.13 C186.29 1176.13 188.27 1176.13 190.31 1176.13 C189.65 1175.47 188.99 1174.81 188.31 1174.13 Z M166.31 1180.13 C166.31 1180.46 166.31 1180.79 166.31 1181.13 C168.62 1181.13 170.93 1181.13 173.31 1181.13 C173.31 1180.8 173.31 1180.47 173.31 1180.13 C171 1180.13 168.69 1180.13 166.31 1180.13 Z M143.31 1185.13 C143.31 1185.46 143.31 1185.79 143.31 1186.13 C146.61 1186.13 149.91 1186.13 153.31 1186.13 C153.31 1185.8 153.31 1185.47 153.31 1185.13 C150.01 1185.13 146.71 1185.13 143.31 1185.13 Z " fill="#FA5953" transform="translate(620.69140625,38.8671875)"/>
<path d="M0 0 C3.66 1.54 5.99 3.75 8.79 6.54 C9.26 7.01 9.73 7.48 10.21 7.96 C11.79 9.53 13.36 11.11 14.93 12.68 C16.06 13.82 17.2 14.96 18.34 16.09 C21.47 19.22 24.6 22.36 27.72 25.49 C31.09 28.87 34.47 32.24 37.85 35.62 C43.7 41.47 49.54 47.32 55.38 53.17 C63.84 61.64 72.3 70.11 80.76 78.57 C94.49 92.31 108.22 106.05 121.95 119.8 C135.27 133.14 148.59 146.48 161.92 159.81 C162.74 160.63 163.56 161.45 164.41 162.3 C168.53 166.42 172.64 170.54 176.76 174.66 C205.15 203.06 233.53 231.47 261.91 259.88 C262.51 260.49 263.12 261.1 263.74 261.72 C266.54 264.53 269.35 267.33 272.15 270.14 C272.65 270.64 273.15 271.14 273.66 271.65 C274.98 272.97 276.3 274.29 277.61 275.61 C280.08 278.08 282.54 280.54 285 283 C286 284 286 284 286.12 287 C286 290 286 290 285 291 C284.76 293.86 284.58 296.7 284.44 299.56 C284.37 300.77 284.37 300.77 284.31 302.01 C284.2 304 284.1 306 284 308 C284.66 308 285.32 308 286 308 C286.02 313.96 286.04 319.93 286.05 325.89 C286.06 327.92 286.07 329.95 286.08 331.98 C286.09 334.89 286.09 337.8 286.1 340.71 C286.1 341.63 286.11 342.54 286.11 343.48 C286.11 345.66 286.06 347.83 286 350 C285.67 350.33 285.34 350.66 285 351 C284.94 352.38 284.94 353.77 284.97 355.15 C284.98 355.99 285 356.83 285.01 357.7 C285.04 359.47 285.08 361.25 285.13 363.03 C285.14 363.87 285.15 364.72 285.16 365.59 C285.18 366.36 285.19 367.13 285.21 367.93 C285 370 285 370 283 373 C282.68 376.44 282.54 379.83 282.43 383.28 C282.2 388.8 282.2 388.8 280 391 C279.79 393.83 279.79 393.83 279.94 397 C280.1 402.8 280.1 402.8 279 405 C278.34 405 277.68 405 277 405 C277.03 406.26 277.03 406.26 277.07 407.55 C277.1 409.2 277.1 409.2 277.12 410.88 C277.15 411.97 277.17 413.06 277.2 414.18 C277 417 277 417 275 419 C274.8 421.14 274.8 421.14 274.94 423.5 C275.1 427.8 275.1 427.8 274 430 C273.34 430 272.68 430 272 430 C272.03 430.94 272.03 430.94 272.07 431.9 C272.1 433.12 272.1 433.12 272.12 434.38 C272.15 435.19 272.17 436 272.2 436.84 C272 439 272 439 270 441 C269.96 443.33 269.96 445.67 270 448 C269.67 448.66 269.34 449.32 269 450 C268.34 450 267.68 450 267 450 C267 452.31 267 454.62 267 457 C266.34 457 265.68 457 265 457 C265.03 458.92 265.03 458.92 265.06 460.88 C265.12 464.75 265.12 464.75 264 467 C263.34 467 262.68 467 262 467 C262.06 468.61 262.06 468.61 262.12 470.25 C262.01 473.78 261.71 475.08 260 478 C259.66 479.33 259.33 480.67 259 482 C258.54 483.28 258.06 484.55 257.56 485.81 C256.58 488.37 255.76 490.85 255 493.5 C254.07 496.76 252.95 499.84 251.73 503 C250.65 505.96 249.82 508.96 249 512 C248.34 512 247.68 512 247 512 C247 513.65 247 515.3 247 517 C246.34 517 245.68 517 245 517 C245.03 518.42 245.03 518.42 245.06 519.88 C245 523 245 523 244 525 C243.34 525 242.68 525 242 525 C241.81 526.08 241.81 526.08 241.62 527.19 C241.01 529.96 240.12 532.4 239 535 C238.34 535 237.68 535 237 535 C237.06 535.87 237.12 536.73 237.19 537.62 C236.98 541.44 235.88 543.71 234 547 C233.34 547 232.68 547 232 547 C232 548.65 232 550.3 232 552 C231.34 552 230.68 552 230 552 C229.67 553.65 229.34 555.3 229 557 C228.34 557 227.68 557 227 557 C227.06 558.11 227.06 558.11 227.12 559.25 C226.99 562.14 226.61 563.63 225 566 C224.01 566.33 223.02 566.66 222 567 C222 568.65 222 570.3 222 572 C221.34 572 220.68 572 220 572 C219.67 573.65 219.34 575.3 219 577 C218.34 577 217.68 577 217 577 C216.91 578.14 216.91 578.14 216.81 579.31 C216 582 216 582 213.5 583.69 C212.67 584.12 211.85 584.55 211 585 C210.67 585.66 210.34 586.32 210 587 C210.99 586.01 211.98 585.02 213 584 C213.66 584.33 214.32 584.66 215 585 C214.38 585.72 213.76 586.44 213.12 587.19 C211.16 589.78 210.05 591.95 209 595 C208.34 595 207.68 595 207 595 C206.85 596.08 206.85 596.08 206.69 597.19 C205.7 601.23 203.93 604.07 201 607 C200.69 607.8 200.38 608.61 200.06 609.44 C198.98 612.04 197.99 613.09 196 615 C194.82 617.1 194.82 617.1 194 619 C193.01 618.34 192.02 617.68 191 617 C190.67 619.97 190.34 622.94 190 626 C189.01 626.33 188.02 626.66 187 627 C186.88 628.11 186.88 628.11 186.75 629.25 C185.85 632.54 184.62 633.86 182 636 C181.34 636 180.68 636 180 636 C180.12 637.11 180.12 637.11 180.25 638.25 C179.92 641.83 178.6 642.63 176 645 C174.76 647.13 174.76 647.13 174 649 C173.67 648.34 173.34 647.68 173 647 C172.01 647 171.02 647 170 647 C170.33 648.98 170.66 650.96 171 653 C170.01 653 169.02 653 168 653 C167.79 654.01 167.59 655.02 167.38 656.06 C166.27 660.01 164.2 662.46 161.44 665.42 C159.79 667.15 159.79 667.15 158 670 C155.74 672.29 153.42 674.52 151.09 676.75 C149.16 678.83 148.19 680.46 147 683 C142.57 688.76 137.26 693.77 132.04 698.8 C129.8 700.91 129.8 700.91 129 704 C126.94 704.69 126.94 704.69 125 705 C125.66 705.33 126.32 705.66 127 706 C122.66 710.38 118.32 714.76 113.98 719.13 C112.5 720.62 111.02 722.11 109.55 723.6 C107.43 725.75 105.3 727.89 103.17 730.02 C102.51 730.69 101.86 731.36 101.18 732.05 C100.25 732.98 100.25 732.98 99.3 733.93 C98.76 734.47 98.22 735.02 97.66 735.58 C95.88 737.11 94.11 738 92 739 C90.32 740.47 90.32 740.47 88.76 742.19 C88.17 742.8 87.57 743.42 86.96 744.05 C85.74 745.35 84.52 746.64 83.31 747.95 C79.68 751.71 77.13 753.55 72 755 C70.17 756.56 70.17 756.56 68.81 758.44 C64.08 764.47 64.08 764.47 61.03 765.96 C58.67 767.17 57.33 768.6 55.56 770.56 C52.66 773.58 51.1 774.24 47 775 C45.74 776.45 44.49 777.91 43.33 779.44 C41.27 781.86 38.67 783.34 36 785 C35.34 785.66 34.68 786.32 34 787 C33.24 787.27 32.47 787.54 31.69 787.81 C28.35 789.29 26.53 791.4 24 794 C22.37 795.05 20.7 796.06 19 797 C18.01 797.66 17.02 798.32 16 799 C15.01 799 14.02 799 13 799 C12.67 799.99 12.34 800.98 12 802 C10.35 802.7 8.68 803.36 7 804 C6.5 804.49 6.01 804.99 5.5 805.5 C3.57 807.43 1.52 807.99 -1 809 C-1.46 809.48 -1.92 809.97 -2.4 810.46 C-4.24 812.23 -5.71 812.78 -8.12 813.56 C-10.21 814.2 -10.21 814.2 -12 815 C-12.33 815.66 -12.66 816.32 -13 817 C-13.78 817.31 -14.57 817.62 -15.38 817.94 C-17.99 818.8 -17.99 818.8 -19.5 820.5 C-21.48 822.48 -23.35 823.16 -26 824 C-27.32 824 -28.64 824 -30 824 C-30.33 824.99 -30.66 825.98 -31 827 C-32.32 827 -33.64 827 -35 827 C-35 827.66 -35 828.32 -35 829 C-36.65 829 -38.3 829 -40 829 C-40.33 829.99 -40.66 830.98 -41 832 C-42.32 832 -43.64 832 -45 832 C-45 832.66 -45 833.32 -45 834 C-46.65 834 -48.3 834 -50 834 C-50.33 834.99 -50.66 835.98 -51 837 C-52.32 837 -53.64 837 -55 837 C-55 837.66 -55 838.32 -55 839 C-56.65 839 -58.3 839 -60 839 C-60.33 839.99 -60.66 840.98 -61 842 C-64.71 844.01 -67.83 844.19 -72 844 C-72.33 844.99 -72.66 845.98 -73 847 C-74.32 847.39 -75.66 847.71 -77 848 C-78.45 848.74 -78.45 848.74 -79.94 849.5 C-83.33 851.16 -86.23 852 -90 852 C-90 852.66 -90 853.32 -90 854 C-91.65 854 -93.3 854 -95 854 C-95 854.66 -95 855.32 -95 856 C-95.99 856.27 -96.98 856.54 -98 856.81 C-100.72 857.59 -103.36 858.48 -106 859.5 C-109.61 860.89 -113.28 861.94 -117 863 C-118.34 863.49 -119.67 863.99 -121 864.5 C-124.61 865.89 -128.28 866.94 -132 868 C-134.08 868.74 -136.14 869.52 -138.2 870.32 C-142.33 871.89 -145.59 872.08 -150 872 C-150 872.66 -150 873.32 -150 874 C-152.31 874 -154.62 874 -157 874 C-157 874.66 -157 875.32 -157 876 C-160 877 -160 877 -163.06 876.94 C-166.13 876.66 -166.13 876.66 -168 879 C-170.06 879.34 -170.06 879.34 -172.44 879.5 C-175.94 879.73 -176.94 879.96 -180 882 C-182.48 882.2 -182.48 882.2 -185.19 882.12 C-186.09 882.11 -186.99 882.09 -187.92 882.07 C-188.95 882.04 -188.95 882.04 -190 882 C-190 882.66 -190 883.32 -190 884 C-193.96 884 -197.92 884 -202 884 C-202 884.66 -202 885.32 -202 886 C-205.92 887.31 -209.4 886.98 -213.5 886.84 C-216.18 886.74 -216.18 886.74 -218 889 C-220.65 889.26 -223.22 889.42 -225.88 889.5 C-231.09 889.5 -231.09 889.5 -235.97 891.01 C-238.28 892.13 -239.71 892.22 -242.26 892.16 C-243.05 892.15 -243.84 892.14 -244.65 892.13 C-245.88 892.1 -245.88 892.1 -247.12 892.06 C-252.73 891.65 -252.73 891.65 -258 893 C-260.58 893.02 -263.12 892.97 -265.69 892.88 C-266.47 892.86 -267.25 892.83 -268.05 892.81 C-270.55 892.73 -273.06 892.65 -275.56 892.56 C-285.26 892.25 -294.95 891.95 -304.65 891.9 C-305.38 891.9 -306.11 891.89 -306.86 891.88 C-308.57 891.88 -310.29 891.94 -312 892 C-312.33 892.33 -312.66 892.66 -313 893 C-314.89 893.2 -314.89 893.2 -317.25 893.25 C-318.02 893.28 -318.79 893.3 -319.58 893.33 C-326.26 892.42 -330.8 886.48 -335.31 881.94 C-336.14 881.11 -336.97 880.28 -337.83 879.42 C-340.14 877.12 -342.44 874.82 -344.74 872.51 C-347.22 870.02 -349.71 867.53 -352.2 865.05 C-357.08 860.18 -361.94 855.3 -366.81 850.43 C-372.48 844.75 -378.15 839.07 -383.83 833.4 C-393.96 823.27 -404.08 813.14 -414.21 803 C-424.02 793.17 -433.84 783.34 -443.66 773.52 C-444.27 772.92 -444.87 772.31 -445.5 771.69 C-446.4 770.78 -446.4 770.78 -447.33 769.86 C-458.51 758.67 -469.7 747.48 -480.88 736.29 C-484.83 732.33 -488.79 728.38 -492.74 724.43 C-497.56 719.61 -502.38 714.78 -507.2 709.96 C-509.65 707.5 -512.11 705.04 -514.57 702.58 C-517.24 699.91 -519.9 697.24 -522.57 694.57 C-523.34 693.79 -524.11 693.02 -524.91 692.23 C-529.15 687.97 -533.15 683.61 -537 679 C-536.67 678.34 -536.34 677.68 -536 677 C-535.4 677.2 -534.79 677.41 -534.17 677.62 C-533.37 677.89 -532.57 678.16 -531.75 678.44 C-530.96 678.7 -530.17 678.97 -529.36 679.25 C-524.74 680.72 -520.84 681.13 -515.95 681.13 C-514.87 681.13 -514.87 681.13 -513.78 681.14 C-511.38 681.14 -508.97 681.14 -506.57 681.14 C-504.83 681.14 -503.09 681.15 -501.35 681.15 C-496.57 681.16 -491.79 681.16 -487.01 681.16 C-481.85 681.16 -476.7 681.17 -471.54 681.18 C-460.26 681.19 -448.99 681.2 -437.71 681.2 C-430.67 681.2 -423.63 681.21 -416.59 681.21 C-397.1 681.22 -377.61 681.23 -358.12 681.24 C-356.88 681.24 -355.63 681.24 -354.34 681.24 C-353.09 681.24 -351.84 681.24 -350.55 681.24 C-348.02 681.24 -345.48 681.24 -342.95 681.24 C-341.06 681.24 -341.06 681.24 -339.14 681.24 C-318.77 681.24 -298.4 681.26 -278.03 681.29 C-257.13 681.31 -236.22 681.32 -215.31 681.32 C-203.57 681.32 -191.83 681.33 -180.09 681.35 C-170.09 681.36 -160.09 681.37 -150.09 681.36 C-144.99 681.36 -139.89 681.36 -134.79 681.37 C-130.12 681.38 -125.45 681.38 -120.77 681.37 C-119.09 681.37 -117.4 681.37 -115.71 681.38 C-102.92 681.44 -90.23 680.48 -80.28 671.44 C-72.01 662.32 -68.95 652.15 -68.27 640.1 C-68.21 639.24 -68.16 638.38 -68.1 637.5 C-67.92 634.65 -67.75 631.8 -67.59 628.95 C-67.46 626.91 -67.33 624.86 -67.2 622.82 C-66.86 617.33 -66.53 611.85 -66.2 606.37 C-65.87 600.84 -65.53 595.31 -65.18 589.78 C-64.4 577 -63.62 564.22 -62.85 551.44 C-62.47 545.12 -62.08 538.79 -61.7 532.47 C-61.16 523.57 -60.62 514.67 -60.08 505.77 C-59.26 492.23 -58.43 478.7 -57.61 465.17 C-57.56 464.3 -57.5 463.44 -57.45 462.55 C-57.09 456.68 -56.73 450.81 -56.38 444.94 C-55.98 438.39 -55.58 431.84 -55.18 425.29 C-55.1 424.09 -55.1 424.09 -55.03 422.87 C-54.33 411.46 -53.64 400.04 -52.95 388.63 C-52.48 381.05 -52.02 373.46 -51.56 365.88 C-51.51 365.04 -51.46 364.21 -51.41 363.35 C-50.12 342.19 -48.82 321.04 -47.49 299.89 C-47.43 298.87 -47.36 297.85 -47.3 296.8 C-46.97 291.64 -46.65 286.47 -46.33 281.31 C-44.45 251.36 -42.58 221.41 -40.81 191.46 C-40.69 189.36 -40.57 187.25 -40.44 185.15 C-39.95 176.77 -39.47 168.38 -39 160 C-38.94 158.92 -38.88 157.85 -38.82 156.74 C-38.65 153.73 -38.49 150.73 -38.33 147.73 C-38.28 146.85 -38.23 145.97 -38.18 145.06 C-38.08 143.04 -38.03 141.02 -38 139 C-39.19 137.58 -39.19 137.58 -42.59 137.91 C-44.24 137.92 -45.9 137.94 -47.56 137.96 C-48.47 137.96 -49.38 137.97 -50.32 137.98 C-53.42 138 -56.52 138.04 -59.62 138.07 C-61.85 138.09 -64.08 138.11 -66.31 138.13 C-71.17 138.17 -76.04 138.21 -80.91 138.26 C-93.72 138.38 -106.53 138.49 -119.34 138.59 C-121.51 138.61 -123.67 138.62 -125.84 138.64 C-148.5 138.83 -171.16 138.96 -193.82 139.06 C-194.58 139.06 -195.35 139.07 -196.13 139.07 C-211.95 139.14 -227.77 139.2 -243.59 139.26 C-252.55 139.29 -261.52 139.33 -270.48 139.36 C-271.3 139.37 -272.11 139.37 -272.94 139.37 C-299.18 139.48 -325.42 139.69 -351.66 139.96 C-378.65 140.24 -405.65 140.4 -432.65 140.43 C-436.47 140.43 -440.3 140.43 -444.12 140.44 C-444.87 140.44 -445.63 140.44 -446.4 140.44 C-458.45 140.46 -470.5 140.6 -482.55 140.78 C-494.7 140.97 -506.85 141.02 -519.01 140.95 C-525.58 140.92 -532.14 140.94 -538.71 141.12 C-581.51 142.19 -581.51 142.19 -598.39 126.98 C-606 119.67 -613.01 111.69 -619 103 C-619 102.34 -619 101.68 -619 101 C-620.32 100.34 -621.64 99.68 -623 99 C-623 98.34 -623 97.68 -623 97 C-621.69 97 -620.37 97 -619.02 97 C-561.12 96.99 -503.21 96.97 -445.31 96.93 C-444.44 96.92 -443.56 96.92 -442.66 96.92 C-423.62 96.91 -404.58 96.89 -385.54 96.87 C-376.2 96.86 -366.86 96.86 -357.53 96.85 C-356.13 96.85 -356.13 96.85 -354.71 96.84 C-324.58 96.82 -294.45 96.81 -264.31 96.8 C-233.35 96.8 -202.4 96.78 -171.44 96.74 C-167.07 96.74 -162.7 96.73 -158.33 96.73 C-157.47 96.73 -156.61 96.72 -155.73 96.72 C-141.86 96.71 -128 96.71 -114.14 96.72 C-100.22 96.72 -86.29 96.71 -72.37 96.68 C-64.09 96.66 -55.81 96.66 -47.53 96.68 C-41.36 96.69 -35.19 96.67 -29.01 96.65 C-26.51 96.64 -24.01 96.64 -21.5 96.66 C-18.11 96.67 -14.72 96.65 -11.33 96.63 C-9.85 96.65 -9.85 96.65 -8.35 96.67 C-3.7 96.6 -1.68 96.53 2.08 93.59 C5.17 89.43 5.13 87.13 5.16 81.94 C5.17 81.21 5.17 80.48 5.18 79.74 C5.19 77.32 5.2 74.91 5.2 72.5 C5.21 70.82 5.21 69.14 5.22 67.46 C5.23 63.93 5.24 60.4 5.24 56.87 C5.25 52.37 5.27 47.87 5.3 43.36 C5.32 39.89 5.32 36.42 5.32 32.94 C5.33 31.28 5.33 29.62 5.35 27.97 C5.42 17.6 4.79 9.42 0 0 Z M283 343 C284 345 284 345 284 345 Z M283 347 C284 350 284 350 284 350 Z M282 351 C281.67 357.27 281.34 363.54 281 370 C281.66 370.33 282.32 370.66 283 371 C283 364.4 283 357.8 283 351 C282.67 351 282.34 351 282 351 Z M280 379 C281 381 281 381 281 381 Z M280 382 C281 386 281 386 281 386 Z M277 391 C276.67 394.96 276.34 398.92 276 403 C276.99 403.5 276.99 403.5 278 404 C278 399.71 278 395.42 278 391 C277.67 391 277.34 391 277 391 Z M270 432 C270 434.31 270 436.62 270 439 C270.33 439 270.66 439 271 439 C271 436.69 271 434.38 271 432 C270.67 432 270.34 432 270 432 Z M267 443 C266.34 444.98 265.68 446.96 265 449 C265.99 449 266.98 449 268 449 C268 447.02 268 445.04 268 443 C267.67 443 267.34 443 267 443 Z M265 454 C266 456 266 456 266 456 Z M262 460 C261.67 461.65 261.34 463.3 261 465 C261.99 465.5 261.99 465.5 263 466 C263 464.02 263 462.04 263 460 C262.67 460 262.34 460 262 460 Z M259 471 C259.99 472.49 259.99 472.49 261 474 C261 473.01 261 472.02 261 471 C260.34 471 259.68 471 259 471 Z M257 476 C256.67 477.32 256.34 478.64 256 480 C256.99 480.5 256.99 480.5 258 481 C258 479.35 258 477.7 258 476 C257.67 476 257.34 476 257 476 Z M254 486 C254.99 487.49 254.99 487.49 256 489 C256 488.01 256 487.02 256 486 C255.34 486 254.68 486 254 486 Z M252 491 C251.67 492.32 251.34 493.64 251 495 C251.99 495.5 251.99 495.5 253 496 C253 494.35 253 492.7 253 491 C252.67 491 252.34 491 252 491 Z M249 501 C249.99 502.49 249.99 502.49 251 504 C251 503.01 251 502.02 251 501 C250.34 501 249.68 501 249 501 Z M244 514 C244 514.99 244 515.98 244 517 C244.66 516.67 245.32 516.34 246 516 C246 515.34 246 514.68 246 514 C245.34 514 244.68 514 244 514 Z M242 519 C242 520.65 242 522.3 242 524 C242.33 524 242.66 524 243 524 C243 522.35 243 520.7 243 519 C242.67 519 242.34 519 242 519 Z M240 525 C239.67 525.66 239.34 526.32 239 527 C239.66 527.66 240.32 528.32 241 529 C240.67 527.68 240.34 526.36 240 525 Z M238 527 C239 529 239 529 239 529 Z M220 566 C220 567.65 220 569.3 220 571 C220.33 571 220.66 571 221 571 C221 569.35 221 567.7 221 566 C220.67 566 220.34 566 220 566 Z M202 600 C201.34 600.66 200.68 601.32 200 602 C200.33 602.99 200.66 603.98 201 605 C201.66 604.34 202.32 603.68 203 603 C202.67 602.01 202.34 601.02 202 600 Z M196 609 C195.67 609.99 195.34 610.98 195 612 C195.99 611.67 196.98 611.34 198 611 C197.34 610.34 196.68 609.68 196 609 Z M183 629 C183.66 629.66 184.32 630.32 185 631 C185 630.34 185 629.68 185 629 C184.34 629 183.68 629 183 629 Z M176 639 C175.67 639.99 175.34 640.98 175 642 C175.99 641.67 176.98 641.34 178 641 C177.34 640.34 176.68 639.68 176 639 Z M165 653 C166 655 166 655 166 655 Z M164 656 C164 656.99 164 657.98 164 659 C164.66 658.67 165.32 658.34 166 658 C166 657.34 166 656.68 166 656 C165.34 656 164.68 656 164 656 Z M144 681 C144 681.99 144 682.98 144 684 C144.66 683.67 145.32 683.34 146 683 C146 682.34 146 681.68 146 681 C145.34 681 144.68 681 144 681 Z M74 751 C74 751.66 74 752.32 74 753 C74.66 752.67 75.32 752.34 76 752 C75.34 751.67 74.68 751.34 74 751 Z M50 771 C49.67 771.66 49.34 772.32 49 773 C49.66 773 50.32 773 51 773 C50.67 772.34 50.34 771.68 50 771 Z M43 776 C44 778 44 778 44 778 Z M40 777 C40 777.99 40 778.98 40 780 C40.66 779.67 41.32 779.34 42 779 C42 778.34 42 777.68 42 777 C41.34 777 40.68 777 40 777 Z M33 782 C33 782.99 33 783.98 33 785 C33.66 784.67 34.32 784.34 35 784 C35 783.34 35 782.68 35 782 C34.34 782 33.68 782 33 782 Z M22 790 C21.67 790.99 21.34 791.98 21 793 C21.99 793 22.98 793 24 793 C23.67 792.01 23.34 791.02 23 790 C22.67 790 22.34 790 22 790 Z M18 793 C18 793.66 18 794.32 18 795 C18.66 794.67 19.32 794.34 20 794 C19.34 793.67 18.68 793.34 18 793 Z M2 803 C2 803.99 2 804.98 2 806 C2.66 805.34 3.32 804.68 4 804 C3.34 803.67 2.68 803.34 2 803 Z M-5 807 C-5 807.99 -5 808.98 -5 810 C-4.34 810 -3.68 810 -3 810 C-3.33 809.01 -3.66 808.02 -4 807 C-4.33 807 -4.66 807 -5 807 Z M-22 817 C-21.34 817.66 -20.68 818.32 -20 819 C-20 818.34 -20 817.68 -20 817 C-20.66 817 -21.32 817 -22 817 Z M-24 818 C-23.67 818.99 -23.34 819.98 -23 821 C-22.34 820.34 -21.68 819.68 -21 819 C-21.99 818.67 -22.98 818.34 -24 818 Z M-106 856 C-106 856.66 -106 857.32 -106 858 C-105.34 857.67 -104.68 857.34 -104 857 C-104.66 856.67 -105.32 856.34 -106 856 Z M-113 858 C-113.99 858.66 -114.98 859.32 -116 860 C-114.35 860 -112.7 860 -111 860 C-111.66 859.34 -112.32 858.68 -113 858 Z M-121 861 C-121 861.66 -121 862.32 -121 863 C-120.01 862.67 -119.02 862.34 -118 862 C-118.99 861.67 -119.98 861.34 -121 861 Z M-136 866 C-136 866.66 -136 867.32 -136 868 C-135.34 867.67 -134.68 867.34 -134 867 C-134.66 866.67 -135.32 866.34 -136 866 Z M-143 868 C-144.98 868.99 -144.98 868.99 -147 870 C-145.02 870 -143.04 870 -141 870 C-141.66 869.34 -142.32 868.68 -143 868 Z M-165 874 C-165 874.33 -165 874.66 -165 875 C-162.69 875 -160.38 875 -158 875 C-158 874.67 -158 874.34 -158 874 C-160.31 874 -162.62 874 -165 874 Z M-188 879 C-188 879.33 -188 879.66 -188 880 C-184.7 880 -181.4 880 -178 880 C-178 879.67 -178 879.34 -178 879 C-181.3 879 -184.6 879 -188 879 Z " fill="#D73B3C" transform="translate(952,345)"/>
<path d="M0 0 C0.87 0 1.74 0.01 2.64 0.01 C4.03 0.01 4.03 0.01 5.45 0.01 C8.58 -0 11.72 0.01 14.85 0.01 C17.11 0.01 19.36 0.01 21.62 0 C27.85 -0.01 34.08 -0 40.31 0 C46.32 0.01 52.34 0 58.36 -0 C71.44 -0.01 84.51 -0.01 97.59 -0.01 C109.03 -0 120.47 0 131.91 -0 C132.67 -0 133.43 -0 134.21 -0 C137.29 -0 140.36 -0 143.44 -0 C172.32 -0.01 201.2 -0 230.08 0.01 C255.76 0.02 281.44 0.01 307.11 0.01 C335.94 -0.01 364.77 -0.01 393.59 -0 C396.66 -0 399.73 -0 402.8 -0 C403.94 -0 403.94 -0 405.09 -0 C416.53 0 427.97 -0 439.41 -0.01 C452.41 -0.01 465.41 -0.01 478.41 -0 C485.04 0.01 491.68 0.01 498.32 0 C504.39 -0.01 510.46 -0 516.53 0.01 C518.73 0.01 520.94 0.01 523.14 0 C526.12 -0 529.1 0 532.08 0.01 C532.95 0.01 533.82 0 534.72 0 C540.63 0.04 540.63 0.04 542.86 2.27 C542.9 5.09 542.81 7.8 542.62 10.62 C542.57 11.54 542.52 12.46 542.46 13.4 C542.34 15.51 542.21 17.61 542.08 19.72 C541.84 23.52 541.62 27.33 541.4 31.13 C540.89 39.75 540.36 48.36 539.83 56.97 C539.61 60.52 539.4 64.07 539.18 67.62 C537.91 88.28 536.63 108.95 535.34 129.61 C535.27 130.62 535.21 131.63 535.14 132.67 C534.82 137.78 534.5 142.88 534.18 147.99 C534.12 149 534.05 150.01 533.99 151.06 C533.86 153.12 533.73 155.19 533.6 157.25 C531.93 183.82 530.3 210.39 528.76 236.97 C527.57 257.59 526.32 278.19 525.05 298.8 C525 299.47 524.96 300.13 524.92 300.82 C524.1 314.11 523.28 327.39 522.46 340.68 C521.93 349.14 521.41 357.61 520.89 366.07 C520.85 366.77 520.8 367.47 520.76 368.18 C519.5 388.63 518.27 409.08 517.08 429.52 C516.94 431.89 516.8 434.26 516.66 436.63 C516.08 446.55 515.5 456.47 514.94 466.38 C514.71 470.36 514.48 474.33 514.25 478.31 C514.14 480.11 514.04 481.92 513.94 483.72 C513.45 492.39 512.86 501.02 511.89 509.65 C511.82 510.34 511.74 511.04 511.66 511.75 C510.42 522.1 505.43 529.9 497.98 537.02 C489.76 542.94 481.46 545.51 471.31 545.52 C470.59 545.52 469.87 545.52 469.13 545.53 C466.73 545.53 464.33 545.53 461.94 545.52 C460.2 545.52 458.45 545.53 456.71 545.53 C451.94 545.54 447.16 545.53 442.38 545.53 C437.23 545.52 432.08 545.53 426.92 545.54 C416.83 545.54 406.73 545.54 396.64 545.54 C388.44 545.53 380.23 545.53 372.03 545.53 C370.28 545.53 370.28 545.53 368.49 545.53 C366.12 545.54 363.75 545.54 361.38 545.54 C339.13 545.54 316.89 545.54 294.65 545.52 C275.56 545.52 256.48 545.52 237.4 545.53 C215.23 545.54 193.07 545.54 170.91 545.54 C168.55 545.53 166.19 545.53 163.82 545.53 C162.08 545.53 162.08 545.53 160.3 545.53 C152.1 545.53 143.91 545.53 135.72 545.54 C125.73 545.54 115.75 545.54 105.76 545.53 C100.67 545.53 95.57 545.52 90.48 545.53 C85.81 545.54 81.15 545.53 76.48 545.52 C74.79 545.52 73.11 545.52 71.42 545.53 C55.61 545.57 44.44 543.68 32.48 532.52 C21.9 521.4 21.71 506.29 21.02 491.67 C20.84 487.7 20.63 483.74 20.42 479.78 C20.38 478.93 20.33 478.09 20.29 477.21 C19.81 468.04 19.21 458.88 18.61 449.71 C17.52 432.98 16.5 416.25 15.55 399.52 C14.09 373.89 12.54 348.26 10.98 322.64 C10.92 321.58 10.85 320.51 10.79 319.41 C10 306.49 9.22 293.56 8.43 280.63 C8 273.6 7.57 266.56 7.15 259.53 C3.21 194.64 3.21 194.64 -0.88 129.76 C-1.14 125.85 -1.39 121.93 -1.64 118.02 C-1.7 117.06 -1.76 116.1 -1.83 115.12 C-2.93 98.04 -3.92 80.95 -4.89 63.86 C-5.7 49.62 -6.54 35.39 -7.58 21.16 C-8.63 6.48 -8.63 6.48 -8.14 2.27 C-5.5 -0.37 -3.59 0.02 0 0 Z " fill="#FCFCFC" transform="translate(372.1415403485298,481.7341288328171)"/>
<path d="M0 0 C1.58 -0 3.16 -0.01 4.74 -0.02 C9.01 -0.03 13.28 -0.03 17.56 -0.03 C21.13 -0.03 24.71 -0.03 28.28 -0.04 C36.73 -0.05 45.17 -0.05 53.61 -0.04 C62.3 -0.03 70.98 -0.05 79.67 -0.07 C87.15 -0.09 94.63 -0.09 102.1 -0.09 C106.56 -0.09 111.02 -0.09 115.48 -0.1 C119.67 -0.12 123.87 -0.11 128.06 -0.1 C129.59 -0.1 131.12 -0.1 132.66 -0.11 C147.56 -0.18 158.56 1.92 169.62 12.38 C178.45 21.72 182.64 32.29 182.77 45.02 C182.79 45.83 182.81 46.63 182.83 47.47 C182.88 50.03 182.92 52.59 182.96 55.15 C183 57.73 183.05 60.31 183.1 62.9 C183.13 64.5 183.16 66.1 183.18 67.7 C182.92 71.29 182.92 71.29 184.4 74.27 C186.52 74.38 188.65 74.41 190.78 74.41 C191.46 74.42 192.13 74.42 192.83 74.42 C195.11 74.43 197.39 74.43 199.66 74.43 C201.29 74.44 202.92 74.44 204.55 74.45 C208.06 74.46 211.58 74.47 215.09 74.47 C220.66 74.48 226.22 74.5 231.79 74.53 C247.61 74.59 263.44 74.64 279.27 74.68 C288 74.69 296.74 74.72 305.47 74.76 C310.09 74.79 314.71 74.8 319.34 74.8 C323.69 74.8 328.05 74.82 332.4 74.85 C333.99 74.85 335.58 74.86 337.18 74.85 C351.48 74.83 361.77 76.19 372.4 86.27 C380.11 94.07 383.62 103.01 383.69 113.95 C383.7 115.05 383.7 115.05 383.71 116.17 C383.73 118.57 383.73 120.97 383.73 123.37 C383.74 125.05 383.74 126.73 383.75 128.41 C383.76 131.92 383.77 135.43 383.77 138.94 C383.77 143.44 383.79 147.93 383.83 152.42 C383.85 155.88 383.85 159.35 383.85 162.81 C383.86 164.47 383.86 166.12 383.88 167.78 C383.9 170.1 383.89 172.41 383.88 174.73 C383.88 176.04 383.89 177.36 383.89 178.71 C383.31 182.89 382.04 185.02 379.4 188.27 C376.27 190.36 375.59 190.53 372.04 190.53 C371.15 190.54 370.25 190.54 369.33 190.55 C368.34 190.55 367.35 190.54 366.33 190.54 C365.28 190.54 364.23 190.55 363.15 190.55 C359.59 190.57 356.03 190.56 352.47 190.56 C349.91 190.57 347.35 190.57 344.79 190.58 C338.46 190.6 332.13 190.61 325.81 190.61 C318.23 190.61 310.66 190.63 303.08 190.64 C284.77 190.68 266.46 190.7 248.15 190.71 C239.49 190.72 230.83 190.73 222.17 190.73 C192.53 190.77 162.9 190.79 133.27 190.8 C131.41 190.8 129.55 190.8 127.68 190.8 C126.76 190.8 125.84 190.8 124.89 190.8 C120.21 190.81 115.54 190.81 110.86 190.81 C109.47 190.81 109.47 190.81 108.05 190.81 C77.96 190.82 47.87 190.86 17.77 190.92 C-14.03 190.98 -45.83 191.01 -77.64 191.01 C-81.13 191.02 -84.62 191.02 -88.11 191.02 C-89.39 191.02 -89.39 191.02 -90.71 191.02 C-104.55 191.02 -118.39 191.05 -132.23 191.08 C-146.14 191.12 -160.05 191.13 -173.95 191.11 C-182.22 191.1 -190.48 191.11 -198.75 191.15 C-204.92 191.17 -211.08 191.16 -217.25 191.14 C-219.75 191.13 -222.25 191.14 -224.75 191.16 C-228.14 191.19 -231.52 191.17 -234.91 191.14 C-235.89 191.16 -236.87 191.18 -237.87 191.2 C-244.23 191.08 -247.51 189.5 -252.13 185.13 C-254.56 182.07 -254.59 179.5 -254.56 175.66 C-254.57 174.94 -254.57 174.21 -254.58 173.46 C-254.59 171.08 -254.54 168.7 -254.49 166.32 C-254.48 164.65 -254.48 162.98 -254.48 161.31 C-254.47 157.81 -254.43 154.32 -254.37 150.83 C-254.3 146.37 -254.27 141.92 -254.27 137.46 C-254.26 134.01 -254.23 130.56 -254.2 127.12 C-254.19 125.48 -254.17 123.83 -254.17 122.19 C-254.07 107.99 -252.46 96.89 -242.6 86.08 C-237.21 80.86 -231.79 78.28 -224.6 76.27 C-224.03 76.1 -223.46 75.92 -222.88 75.74 C-219.82 75.11 -216.9 75.13 -213.78 75.12 C-213.1 75.11 -212.41 75.11 -211.71 75.1 C-209.41 75.09 -207.12 75.08 -204.82 75.07 C-203.17 75.06 -201.53 75.05 -199.88 75.04 C-195.41 75.01 -190.95 74.99 -186.48 74.97 C-181.81 74.95 -177.14 74.92 -172.47 74.9 C-163.62 74.85 -154.78 74.8 -145.94 74.76 C-135.87 74.71 -125.8 74.65 -115.73 74.6 C-95.02 74.48 -74.31 74.38 -53.6 74.27 C-53.59 72.64 -53.59 72.64 -53.58 70.98 C-53.54 66.88 -53.47 62.79 -53.4 58.7 C-53.37 56.94 -53.35 55.18 -53.33 53.42 C-53.19 36.99 -50.78 24.17 -39.48 11.59 C-28.34 0.96 -14.5 -0.03 0 0 Z " fill="#FCFCFC" transform="translate(574.604736328125,251.725341796875)"/>
<path d="M0 0 C5.19 2.97 7.78 7.97 9.62 13.5 C9.72 14.99 9.76 16.49 9.76 17.98 C9.77 18.91 9.78 19.83 9.78 20.78 C9.78 21.8 9.78 22.81 9.79 23.86 C9.79 24.94 9.8 26.02 9.8 27.13 C9.82 30.76 9.83 34.39 9.83 38.02 C9.84 40.62 9.85 43.22 9.86 45.81 C9.89 53.62 9.91 61.43 9.93 69.23 C9.93 71.44 9.94 73.64 9.94 75.85 C9.97 89.54 10 103.24 10.02 116.94 C10.02 120.11 10.03 123.28 10.03 126.45 C10.03 127.24 10.03 128.03 10.03 128.84 C10.05 141.61 10.09 154.38 10.14 167.15 C10.19 180.26 10.22 193.37 10.23 206.48 C10.23 213.84 10.25 221.2 10.29 228.56 C10.33 235.49 10.34 242.41 10.32 249.34 C10.32 251.88 10.33 254.42 10.35 256.96 C10.38 260.44 10.37 263.91 10.35 267.38 C10.38 268.88 10.38 268.88 10.4 270.42 C10.31 277.55 8.32 282.11 3.62 287.5 C-1.18 291.8 -6.11 292.12 -12.44 291.88 C-18.38 291.11 -21.97 288.84 -26.25 284.75 C-30.7 277.94 -30.67 270.76 -30.64 262.88 C-30.64 261.83 -30.64 260.79 -30.65 259.71 C-30.66 256.22 -30.65 252.73 -30.65 249.23 C-30.65 246.73 -30.66 244.22 -30.67 241.71 C-30.68 235.61 -30.68 229.51 -30.68 223.41 C-30.68 218.45 -30.68 213.49 -30.68 208.53 C-30.68 207.83 -30.68 207.12 -30.68 206.39 C-30.68 204.95 -30.69 203.52 -30.69 202.08 C-30.7 188.63 -30.7 175.17 -30.69 161.72 C-30.68 149.42 -30.7 137.12 -30.71 124.82 C-30.73 112.18 -30.74 99.54 -30.74 86.89 C-30.74 79.8 -30.74 72.71 -30.75 65.62 C-30.77 58.95 -30.76 52.28 -30.75 45.61 C-30.75 43.16 -30.75 40.72 -30.76 38.27 C-30.77 34.93 -30.76 31.59 -30.75 28.25 C-30.76 27.28 -30.76 26.32 -30.77 25.32 C-30.7 16.93 -28.97 9.01 -23.38 2.5 C-16.6 -2.66 -7.79 -3.29 0 0 Z " fill="#D73B3C" transform="translate(524.375,587.5)"/>
<path d="M0 0 C2.84 2.01 4.59 3.95 6.56 6.81 C7.35 7.8 7.35 7.8 8.15 8.81 C10.27 13.32 9.98 17.58 9.95 22.5 C9.96 23.59 9.96 24.68 9.97 25.8 C9.98 29.46 9.97 33.12 9.97 36.78 C9.97 39.4 9.98 42.02 9.99 44.64 C10 51.02 10.01 57.4 10 63.78 C10 68.97 10 74.16 10 79.35 C10 80.09 10 80.82 10.01 81.58 C10.01 83.08 10.01 84.58 10.01 86.08 C10.02 100.15 10.02 114.22 10.01 128.29 C10 141.15 10.01 154.02 10.03 166.89 C10.06 180.1 10.07 193.31 10.06 206.53 C10.06 213.94 10.06 221.36 10.08 228.78 C10.09 235.75 10.09 242.73 10.07 249.7 C10.07 252.26 10.07 254.83 10.08 257.39 C10.09 260.88 10.08 264.37 10.06 267.87 C10.08 269.39 10.08 269.39 10.09 270.94 C10.02 277.91 8.78 282.3 3.96 287.55 C-2.24 292.35 -7.78 292.63 -15.44 291.81 C-21.61 289.84 -25.03 286.66 -28.35 281.21 C-30.33 276.84 -30.12 272.48 -30.07 267.75 C-30.07 266.66 -30.08 265.57 -30.09 264.44 C-30.1 260.79 -30.09 257.14 -30.07 253.49 C-30.07 250.87 -30.08 248.25 -30.09 245.62 C-30.11 239.25 -30.1 232.87 -30.08 226.5 C-30.07 221.32 -30.06 216.14 -30.07 210.95 C-30.07 210.22 -30.07 209.48 -30.07 208.72 C-30.07 207.22 -30.07 205.72 -30.07 204.22 C-30.08 190.97 -30.06 177.72 -30.03 164.46 C-30.01 151.61 -30 138.75 -30.01 125.9 C-30.03 111.89 -30.03 97.89 -30.02 83.88 C-30.02 82.39 -30.01 80.9 -30.01 79.4 C-30.01 78.67 -30.01 77.93 -30.01 77.18 C-30 72 -30.01 66.83 -30.01 61.65 C-30.02 54.68 -30.01 47.72 -29.98 40.75 C-29.97 38.2 -29.97 35.64 -29.98 33.08 C-29.99 29.59 -29.97 26.1 -29.95 22.62 C-29.96 21.6 -29.97 20.58 -29.98 19.54 C-29.89 12.16 -27.89 8.65 -23.06 3.06 C-16.72 -2.38 -7.71 -2.66 0 0 Z " fill="#D73B3C" transform="translate(774.4375,587.1875)"/>
<path d="M0 0 C5.47 3.02 8.34 7.49 10.62 13.2 C11.28 16.92 11.29 20.55 11.25 24.33 C11.25 25.42 11.26 26.51 11.27 27.63 C11.28 31.26 11.27 34.89 11.25 38.52 C11.25 41.13 11.26 43.75 11.27 46.36 C11.29 52.7 11.28 59.04 11.26 65.39 C11.25 70.54 11.24 75.7 11.25 80.86 C11.25 81.59 11.25 82.33 11.25 83.08 C11.25 84.58 11.25 86.07 11.25 87.56 C11.26 100.76 11.24 113.95 11.21 127.14 C11.19 139.93 11.18 152.72 11.19 165.51 C11.21 179.46 11.21 193.4 11.2 207.34 C11.2 208.83 11.19 210.31 11.19 211.8 C11.19 212.53 11.19 213.26 11.19 214.02 C11.18 219.17 11.19 224.32 11.19 229.47 C11.2 236.4 11.19 243.33 11.16 250.27 C11.15 252.81 11.15 255.36 11.16 257.9 C11.17 261.37 11.15 264.84 11.13 268.32 C11.14 269.83 11.14 269.83 11.16 271.37 C11.07 278.31 9.82 282.7 5.02 287.94 C-1.17 292.72 -6.74 293.04 -14.38 292.2 C-19.94 290.22 -24.2 287.23 -27.38 282.2 C-28.33 279.36 -28.51 277.63 -28.52 274.69 C-28.52 273.76 -28.53 272.84 -28.53 271.88 C-28.53 270.86 -28.53 269.84 -28.53 268.78 C-28.53 267.7 -28.54 266.62 -28.54 265.5 C-28.55 261.85 -28.56 258.2 -28.56 254.55 C-28.57 251.94 -28.57 249.33 -28.58 246.72 C-28.6 238.87 -28.61 231.03 -28.62 223.18 C-28.62 219.49 -28.63 215.8 -28.63 212.1 C-28.65 199.82 -28.66 187.54 -28.67 175.27 C-28.67 172.08 -28.68 168.89 -28.68 165.71 C-28.68 164.91 -28.68 164.12 -28.68 163.31 C-28.69 150.47 -28.71 137.64 -28.75 124.81 C-28.78 111.64 -28.8 98.47 -28.8 85.29 C-28.8 77.9 -28.81 70.5 -28.84 63.11 C-28.86 56.15 -28.86 49.19 -28.85 42.23 C-28.85 39.68 -28.86 37.13 -28.87 34.57 C-28.89 31.09 -28.88 27.6 -28.87 24.12 C-28.88 23.1 -28.89 22.09 -28.9 21.05 C-28.83 13.34 -27.04 9.26 -21.95 3.38 C-15.88 -1.79 -7.49 -2.53 0 0 Z " fill="#D73B3C" transform="translate(648.3828125,586.8046875)"/>
<path d="M0 0 C6.02 4.99 11.53 10.39 17.05 15.92 C18.01 16.87 18.96 17.82 19.91 18.77 C21.89 20.75 23.87 22.73 25.84 24.71 C28.38 27.26 30.92 29.79 33.46 32.33 C35.42 34.28 37.38 36.24 39.33 38.2 C40.72 39.59 42.12 40.98 43.51 42.37 C44.77 43.63 44.77 43.63 46.05 44.92 C46.79 45.66 47.53 46.4 48.29 47.17 C50 49 50 49 51 51 C53.35 51.69 53.35 51.69 56.06 52.12 C56.98 52.29 57.9 52.46 58.85 52.63 C59.91 52.81 59.91 52.81 61 53 C61 53.33 61 53.66 61 54 C53.35 54.05 45.69 54.09 38.04 54.11 C35.43 54.12 32.83 54.13 30.22 54.15 C26.48 54.18 22.75 54.19 19.01 54.2 C17.25 54.21 17.25 54.21 15.46 54.23 C13.84 54.23 13.84 54.23 12.18 54.23 C10.75 54.23 10.75 54.23 9.29 54.24 C7 54 7 54 5 52 C4.8 49.35 4.72 46.79 4.73 44.13 C4.71 42.51 4.69 40.88 4.66 39.26 C4.64 36.71 4.63 34.16 4.62 31.6 C4.58 22.27 4.4 14.05 0.85 5.25 C0 3 0 3 0 0 Z " fill="#D73B3C" transform="translate(752,273)"/>
<path d="M0 0 C1.2 -0 2.4 -0 3.64 -0 C4.91 -0 6.17 0 7.48 0.01 C8.73 0 9.99 0 11.29 -0 C13.1 -0 13.1 -0 14.94 0 C16.6 0 16.6 0 18.3 0 C21.1 0.13 21.1 0.13 24.1 1.13 C25.87 1.28 27.65 1.38 29.43 1.45 C30.97 1.51 30.97 1.51 32.54 1.58 C34.15 1.64 34.15 1.64 35.79 1.7 C36.87 1.74 37.96 1.78 39.07 1.83 C41.75 1.93 44.42 2.03 47.1 2.13 C47.1 2.46 47.1 2.79 47.1 3.13 C26.64 3.13 6.18 3.13 -14.9 3.13 C-14.9 2.8 -14.9 2.47 -14.9 2.13 C-12.85 1.9 -10.8 1.68 -8.75 1.45 C-0.29 0 -0.29 0 0 0 Z " fill="#FB5A54" transform="translate(645.8984375,1235.8671875)"/>
<path d="M0 0 C0.33 0 0.66 0 1 0 C1 20.79 1 41.58 1 63 C0.67 63 0.34 63 0 63 C0 49.8 0 36.6 0 23 C-0.66 23 -1.32 23 -2 23 C-2.05 20.29 -2.09 17.58 -2.12 14.88 C-2.14 14.11 -2.16 13.35 -2.18 12.57 C-2.22 7.97 -1.76 4.34 0 0 Z " fill="#FB5A54" transform="translate(1238,630)"/>
<path d="M0 0 C0.66 0 1.32 0 2 0 C2 13.86 2 27.72 2 42 C1.34 42 0.68 42 0 42 C-0.76 37.26 -1.13 32.72 -1.13 27.93 C-1.13 26.62 -1.14 25.31 -1.14 23.96 C-1.13 22.96 -1.13 22.96 -1.13 21.93 C-1.12 19.87 -1.13 17.82 -1.14 15.76 C-1.14 14.46 -1.13 13.15 -1.13 11.8 C-1.13 10.62 -1.13 9.43 -1.13 8.21 C-1.01 5.35 -0.66 2.78 0 0 Z " fill="#641A17" transform="translate(1236,653)"/>
<path d="M0 0 C24.42 0 48.84 0 74 0 C74 0.33 74 0.66 74 1 C49.58 1 25.16 1 0 1 C0 0.67 0 0.34 0 0 Z " fill="#000000" transform="translate(608,1240)"/>
<path d="M0 0 C0.33 0 0.66 0 1 0 C1 24.42 1 48.84 1 74 C0.67 74 0.34 74 0 74 C0 49.58 0 25.16 0 0 Z " fill="#000000" transform="translate(1240,608)"/>
<path d="M0 0 C-1.61 4.07 -4.54 6.77 -7.62 9.75 C-8.14 10.26 -8.66 10.76 -9.19 11.29 C-10.45 12.53 -11.73 13.76 -13 15 C-13.66 13.68 -14.32 12.36 -15 11 C-13.26 9.15 -11.51 7.32 -9.75 5.5 C-9.01 4.71 -9.01 4.71 -8.26 3.91 C-4.45 0 -4.45 0 0 0 Z " fill="#EB6360" transform="translate(1098,1028)"/>
<path d="M0 0 C5.61 0 11.22 0 17 0 C17 0.33 17 0.66 17 1 C11.39 1 5.78 1 0 1 C0 0.67 0 0.34 0 0 Z " fill="#000000" transform="translate(696,1237)"/>
<path d="M0 0 C0.33 0 0.66 0 1 0 C1 4.29 1 8.58 1 13 C0.67 13 0.34 13 0 13 C0 8.71 0 4.42 0 0 Z " fill="#000000" transform="translate(1237,696)"/>
<path d="M0 0 C3.3 0 6.6 0 10 0 C10 0.33 10 0.66 10 1 C6.7 1 3.4 1 0 1 C0 0.67 0 0.34 0 0 Z " fill="#000000" transform="translate(736,1232)"/>
<path d="M0 0 C0.33 0 0.66 0 1 0 C1 3.3 1 6.6 1 10 C0.67 10 0.34 10 0 10 C0 6.7 0 3.4 0 0 Z " fill="#000000" transform="translate(1232,736)"/>
<path d="M0 0 C2.97 0 5.94 0 9 0 C9 0.33 9 0.66 9 1 C6.03 1 3.06 1 0 1 C0 0.67 0 0.34 0 0 Z " fill="#000000" transform="translate(719,1235)"/>
<path d="M0 0 C0.33 0 0.66 0 1 0 C1 2.97 1 5.94 1 9 C0.67 9 0.34 9 0 9 C0 6.03 0 3.06 0 0 Z " fill="#000000" transform="translate(1235,719)"/>
<path d="M0 0 C2.31 0 4.62 0 7 0 C7 0.33 7 0.66 7 1 C4.69 1 2.38 1 0 1 C0 0.67 0 0.34 0 0 Z " fill="#000000" transform="translate(764,1227)"/>
<path d="M0 0 C0.33 0 0.66 0 1 0 C1 2.31 1 4.62 1 7 C0.67 7 0.34 7 0 7 C0 4.69 0 2.38 0 0 Z " fill="#000000" transform="translate(1227,764)"/>
<path d="M0 0 C1.98 0 3.96 0 6 0 C6 0.33 6 0.66 6 1 C4.02 1 2.04 1 0 1 C0 0.67 0 0.34 0 0 Z " fill="#000000" transform="translate(751,1230)"/>
<path d="M0 0 C1.98 0 3.96 0 6 0 C6 0.33 6 0.66 6 1 C4.02 1 2.04 1 0 1 C0 0.67 0 0.34 0 0 Z " fill="#000000" transform="translate(786,1222)"/>
<path d="M0 0 C0.33 0 0.66 0 1 0 C1 1.98 1 3.96 1 6 C0.67 6 0.34 6 0 6 C0 4.02 0 2.04 0 0 Z " fill="#000000" transform="translate(1230,751)"/>
<path d="M0 0 C1.65 0 3.3 0 5 0 C5 0.33 5 0.66 5 1 C3.35 1 1.7 1 0 1 C0 0.67 0 0.34 0 0 Z " fill="#000000" transform="translate(556,1235)"/>
<path d="M0 0 C1.65 0 3.3 0 5 0 C5 0.33 5 0.66 5 1 C3.35 1 1.7 1 0 1 C0 0.67 0 0.34 0 0 Z " fill="#000000" transform="translate(804,1217)"/>
<path d="M0 0 C0.33 0 0.66 0 1 0 C1 1.65 1 3.3 1 5 C0.67 5 0.34 5 0 5 C0 3.35 0 1.7 0 0 Z " fill="#000000" transform="translate(1222,786)"/>
<path d="M0 0 C0.33 0 0.66 0 1 0 C1 1.65 1 3.3 1 5 C0.67 5 0.34 5 0 5 C0 3.35 0 1.7 0 0 Z " fill="#000000" transform="translate(1235,556)"/>
<path d="M0 0 C4 1 4 1 4 1 Z " fill="#000000" transform="translate(776,1225)"/>
<path d="M0 0 C0.66 0.66 1.32 1.32 2 2 C1.01 2.5 1.01 2.5 0 3 C0 2.01 0 1.02 0 0 Z " fill="#D1433F" transform="translate(1123,993)"/>
<path d="M0 0 C1 4 1 4 1 4 Z " fill="#000000" transform="translate(1215,813)"/>
<path d="M0 0 C1 4 1 4 1 4 Z " fill="#000000" transform="translate(1225,776)"/>
<path d="M0 0 C3 1 3 1 3 1 Z " fill="#000000" transform="translate(526,1230)"/>
<path d="M0 0 C3 1 3 1 3 1 Z " fill="#000000" transform="translate(796,1220)"/>
<path d="M0 0 C3 1 3 1 3 1 Z " fill="#000000" transform="translate(814,1215)"/>
<path d="M0 0 C3 1 3 1 3 1 Z " fill="#000000" transform="translate(829,1210)"/>
<path d="" fill="#000000" transform="translate(0,0)"/>
<path d="" fill="#000000" transform="translate(0,0)"/>
<path d="" fill="#000000" transform="translate(0,0)"/>
<path d="M0 0 C2 1 2 1 2 1 Z " fill="#000000" transform="translate(502,1225)"/>
<path d="M0 0 C2 1 2 1 2 1 Z " fill="#000000" transform="translate(822,1212)"/>
<path d="M0 0 C2 1 2 1 2 1 Z " fill="#000000" transform="translate(837,1207)"/>
<path d="M0 0 C2 1 2 1 2 1 Z " fill="#000000" transform="translate(844,1205)"/>
<path d="M0 0 C2 1 2 1 2 1 Z " fill="#000000" transform="translate(864,1197)"/>
<path d="M0 0 C2 1 2 1 2 1 Z " fill="#000000" transform="translate(881,1190)"/>
<path d="M0 0 C2 1 2 1 2 1 Z " fill="#000000" transform="translate(903,1180)"/>
<path d="" fill="#771F1B" transform="translate(0,0)"/>
<path d="" fill="#000000" transform="translate(0,0)"/>
<path d="" fill="#000000" transform="translate(0,0)"/>
<path d="" fill="#000000" transform="translate(0,0)"/>
<path d="" fill="#000000" transform="translate(0,0)"/>
<path d="" fill="#000000" transform="translate(0,0)"/>
<path d="" fill="#000000" transform="translate(0,0)"/>
<path d="" fill="#000000" transform="translate(0,0)"/>
<path d="" fill="#000000" transform="translate(0,0)"/>
<path d="" fill="#000000" transform="translate(0,0)"/>
<path d="" fill="#000000" transform="translate(0,0)"/>
<path d="" fill="#000000" transform="translate(0,0)"/>
<path d="" fill="#000000" transform="translate(0,0)"/>
<path d="" fill="#000000" transform="translate(0,0)"/>
<path d="" fill="#000000" transform="translate(0,0)"/>
<path d="" fill="#000000" transform="translate(0,0)"/>
<path d="" fill="#000000" transform="translate(0,0)"/>
<path d="" fill="#771F1B" transform="translate(0,0)"/>
<path d="" fill="#F8C5C5" transform="translate(0,0)"/>
<path d="" fill="#771F1B" transform="translate(0,0)"/>
<path d="" fill="#000000" transform="translate(0,0)"/>
<path d="" fill="#771F1B" transform="translate(0,0)"/>
<path d="" fill="#000000" transform="translate(0,0)"/>
<path d="" fill="#000000" transform="translate(0,0)"/>
<path d="" fill="#000000" transform="translate(0,0)"/>
<path d="" fill="#000000" transform="translate(0,0)"/>
<path d="" fill="#000000" transform="translate(0,0)"/>
<path d="" fill="#000000" transform="translate(0,0)"/>
<path d="" fill="#FB5A54" transform="translate(0,0)"/>
<path d="" fill="#771F1B" transform="translate(0,0)"/>
<path d="" fill="#000000" transform="translate(0,0)"/>
<path d="" fill="#000000" transform="translate(0,0)"/>
<path d="" fill="#771F1B" transform="translate(0,0)"/>
<path d="" fill="#000000" transform="translate(0,0)"/>
<path d="" fill="#D73B3C" transform="translate(0,0)"/>
<path d="" fill="#000000" transform="translate(0,0)"/>
<path d="" fill="#FB5A54" transform="translate(0,0)"/>
<path d="" fill="#771F1B" transform="translate(0,0)"/>
<path d="" fill="#000000" transform="translate(0,0)"/>
<path d="" fill="#000000" transform="translate(0,0)"/>
<path d="" fill="#000000" transform="translate(0,0)"/>
<path d="" fill="#FB5A54" transform="translate(0,0)"/>
<path d="" fill="#FB5A54" transform="translate(0,0)"/>
<path d="" fill="#771F1B" transform="translate(0,0)"/>
<path d="" fill="#FB5A54" transform="translate(0,0)"/>
<path d="" fill="#771F1B" transform="translate(0,0)"/>
<path d="" fill="#FB5A54" transform="translate(0,0)"/>
<path d="" fill="#000000" transform="translate(0,0)"/>
<path d="" fill="#771F1B" transform="translate(0,0)"/>
<path d="" fill="#000000" transform="translate(0,0)"/>
<path d="" fill="#000000" transform="translate(0,0)"/>
<path d="" fill="#000000" transform="translate(0,0)"/>
<path d="" fill="#000000" transform="translate(0,0)"/>
<path d="" fill="#000000" transform="translate(0,0)"/>
<path d="" fill="#000000" transform="translate(0,0)"/>
<path d="" fill="#000000" transform="translate(0,0)"/>
<path d="" fill="#000000" transform="translate(0,0)"/>
<path d="" fill="#771F1B" transform="translate(0,0)"/>
<path d="" fill="#000000" transform="translate(0,0)"/>
<path d="" fill="#000000" transform="translate(0,0)"/>
<path d="" fill="#000000" transform="translate(0,0)"/>
<path d="" fill="#000000" transform="translate(0,0)"/>
<path d="" fill="#771F1B" transform="translate(0,0)"/>
<path d="" fill="#000000" transform="translate(0,0)"/>
<path d="" fill="#FB5A54" transform="translate(0,0)"/>
<path d="" fill="#000000" transform="translate(0,0)"/>
<path d="" fill="#FB5A54" transform="translate(0,0)"/>
<path d="" fill="#000000" transform="translate(0,0)"/>
<path d="" fill="#000000" transform="translate(0,0)"/>
<path d="" fill="#000000" transform="translate(0,0)"/>
<path d="" fill="#FB5A54" transform="translate(0,0)"/>
<path d="" fill="#000000" transform="translate(0,0)"/>
<path d="" fill="#000000" transform="translate(0,0)"/>
<path d="" fill="#FB5A54" transform="translate(0,0)"/>
<path d="" fill="#FB5A54" transform="translate(0,0)"/>
<path d="" fill="#F8C5C5" transform="translate(0,0)"/>
<path d="" fill="#D73B3C" transform="translate(0,0)"/>
<path d="" fill="#FB5A54" transform="translate(0,0)"/>
<path d="" fill="#D73B3C" transform="translate(0,0)"/>
<path d="" fill="#FB5A54" transform="translate(0,0)"/>
</svg>
